<svg width="64" height="64" viewBox="0 0 64 64" fill="none" xmlns="http://www.w3.org/2000/svg">
<path d="M24.639 0.854029C24.7789 0.843949 24.9188 0.833868 25.2952 0.798072C25.9734 0.648617 26.415 0.524884 26.8566 0.40115C27.1614 0.395404 27.4663 0.389645 28.0956 0.373125C30.1678 0.24158 31.9154 0.12079 33.6631 0C33.8116 0.0336672 33.9601 0.0673344 34.3138 0.175968C34.7675 0.2737 35.0162 0.296461 35.2648 0.319222C35.4378 0.361201 35.6108 0.403181 35.9887 0.543241C36.4214 0.679434 36.6491 0.717551 36.8768 0.755668C36.8768 0.755668 36.9963 0.839696 37.1643 0.936231C37.8451 1.20737 38.3579 1.38197 38.8707 1.55656C38.8707 1.55656 38.8809 1.54218 38.9512 1.64997C39.5073 1.94281 39.993 2.12787 40.4786 2.31293C40.6536 2.43609 40.8285 2.55926 41.1608 2.78075C41.4398 2.91836 41.5615 2.95765 41.6832 2.99694C41.6832 2.99694 41.804 3.0986 41.9553 3.21511C42.4886 3.51459 42.8705 3.69755 43.2525 3.88052C43.2525 3.88052 43.2798 3.84748 43.2982 3.9486C43.4422 4.10253 43.5678 4.15535 43.6934 4.20817C43.6934 4.20817 43.6919 4.21103 43.7274 4.29243C43.8416 4.48479 43.9501 4.52791 44.0885 4.5032C44.2626 4.64748 44.4367 4.79176 44.7666 5.05838C45.0479 5.23462 45.1734 5.28852 45.299 5.34243C45.3874 5.44459 45.4758 5.54675 45.7137 5.78517C46.1906 6.13594 46.5181 6.35045 46.8455 6.56497C46.8455 6.56497 46.8726 6.53096 46.8874 6.63233C47.0256 6.79803 47.149 6.86237 47.2724 6.92671C47.2724 6.92671 47.2843 6.89453 47.3008 6.99769C47.4391 7.16491 47.5611 7.22898 47.683 7.29305C47.683 7.29305 47.6948 7.26505 47.7146 7.36648C47.8507 7.53687 47.9669 7.60584 48.0831 7.6748C48.0831 7.6748 48.0969 7.64757 48.1098 7.75214C48.2397 7.92812 48.3567 7.99952 48.4736 8.07092C48.4736 8.07092 48.4855 8.03921 48.5001 8.14516C48.6318 8.33175 48.7488 8.41238 48.8658 8.493C49.2206 8.92705 49.5754 9.36111 50.0501 9.95434C50.277 10.1884 50.3839 10.2633 50.4908 10.3381C50.4908 10.3381 50.5052 10.3146 50.5146 10.4235C50.6357 10.6221 50.7473 10.7116 50.859 10.8011C50.859 10.8011 50.9079 10.9646 50.9813 11.1022C51.1153 11.3399 51.2058 11.3976 51.3263 11.4129C51.3263 11.4129 51.3136 11.439 51.3409 11.5381C51.4745 11.7145 51.5808 11.7918 51.6871 11.8691C51.6871 11.8691 51.7043 11.8383 51.7107 11.969C51.9653 12.4246 52.2136 12.7494 52.4619 13.0742C52.4619 13.0742 52.4943 13.2374 52.5532 13.3923C52.6712 13.6642 52.7665 13.7404 52.898 13.7758C52.9839 13.9712 53.0699 14.1665 53.2482 14.5559C53.5974 15.176 53.8542 15.6021 54.1111 16.0282C54.1111 16.0282 54.1142 16.0288 54.1196 16.1609C54.3686 16.7545 54.6122 17.216 54.8559 17.6776C54.8559 17.6776 54.8555 17.8199 54.8941 18.0118C55.1623 18.6961 55.3919 19.1885 55.6215 19.6809C55.6311 19.8056 55.6407 19.9304 55.6806 20.2634C55.8315 20.7752 55.9519 21.0785 56.0724 21.3819C56.0859 21.5524 56.0994 21.7228 56.1406 22.1738C56.4172 24.1252 56.666 25.796 56.9147 27.4667C56.8978 27.873 56.8808 28.2793 56.8162 28.9708C56.4953 32.4024 55.721 35.452 54.9216 38.5168C54.9216 38.5168 54.8344 38.6105 54.7348 38.7653C54.4543 39.4171 54.2733 39.914 54.0923 40.4109C54.0923 40.4109 54.1151 40.4242 53.9982 40.4881C53.6909 41.0169 53.5006 41.4819 53.3103 41.9469C53.1792 42.1113 53.048 42.2758 52.8098 42.5891C52.6592 42.8554 52.6158 42.9728 52.5723 43.0902C52.5723 43.0902 52.4675 43.1936 52.3462 43.3347C52.0296 43.8401 51.8344 44.2044 51.6392 44.5687C51.6392 44.5687 51.6755 44.5982 51.5697 44.6145C51.4095 44.7529 51.3552 44.875 51.3009 44.997C51.3009 44.997 51.3093 44.9996 51.2185 45.0297C51.0109 45.1376 50.9631 45.2436 50.9844 45.3777C50.8347 45.5383 50.6849 45.699 50.4064 46.0083C50.22 46.2792 50.1624 46.4016 50.1048 46.5239C50.1048 46.5239 50.1058 46.5248 50.0137 46.5598C49.8052 46.6771 49.7517 46.787 49.7609 46.9245C49.7609 46.9245 49.7188 46.9264 49.6423 46.9671C49.4562 47.0693 49.4099 47.1601 49.4268 47.2801C49.4268 47.2801 49.2931 47.3719 49.1486 47.4967C48.806 47.8779 48.6079 48.1343 48.4098 48.3907C48.2815 48.409 48.1859 48.4721 47.9961 48.6997C47.7952 48.9347 47.7211 49.0498 47.647 49.1649C47.647 49.1649 47.6811 49.1748 47.5713 49.1868C47.3859 49.3114 47.3102 49.4239 47.2346 49.5365C47.2346 49.5365 47.2707 49.5461 47.1611 49.5585C46.9741 49.6828 46.8969 49.7947 46.8196 49.9066C46.8196 49.9066 46.866 49.9141 46.7345 49.9269C46.3294 50.2091 46.0558 50.4785 45.7822 50.7479C45.6584 50.8124 45.5345 50.877 45.2501 51.0443C45.0025 51.2499 44.9155 51.3527 44.8286 51.4556C44.6318 51.5592 44.435 51.6628 44.0679 51.8574C43.7743 52.0091 43.6999 52.1043 43.6745 52.2341C43.6745 52.2341 43.69 52.2446 43.5765 52.2547C43.3668 52.3691 43.2707 52.4733 43.1745 52.5775C43.1745 52.5775 43.0098 52.6091 42.8533 52.6657C42.5747 52.7788 42.4999 52.8703 42.4723 52.9967C42.4723 52.9967 42.4868 53.0073 42.369 53.0138C42.1435 53.1217 42.0358 53.2232 41.928 53.3246C41.928 53.3246 41.7842 53.347 41.6331 53.4036C41.3979 53.5555 41.3137 53.6509 41.2296 53.7463C41.0269 53.8258 40.8242 53.9052 40.4336 54.0685C40.0583 54.2781 39.8709 54.4039 39.6835 54.5297C39.4632 54.5959 39.2429 54.6622 38.8105 54.8225C38.1042 55.1465 37.61 55.3764 37.1158 55.6062C37.1158 55.6062 36.9796 55.6001 36.783 55.6353C35.9679 55.9057 35.3494 56.1408 34.7309 56.3759C34.7309 56.3759 34.5874 56.3607 34.3626 56.39C31.577 56.8067 29.0162 57.1939 26.3224 57.5559C26.0101 57.5476 25.831 57.5646 25.5145 57.5129C24.4056 57.3572 23.434 57.2702 22.4282 57.0826C22.3649 56.9171 22.3359 56.8522 22.3454 56.6153C22.4327 54.5437 22.4816 52.6442 22.5045 50.7451C22.4787 50.7455 22.4924 50.7929 22.6016 50.7602C22.8007 50.6138 22.8904 50.5001 23.0587 50.3545C23.2304 50.2477 23.2783 50.1523 23.3797 49.9911C23.5341 49.8219 23.5897 49.6982 23.647 49.5744C23.6487 49.5744 23.6473 49.571 23.7665 49.4876C24.062 48.4463 24.2383 47.4885 24.4947 46.4544C24.6731 46.1884 24.7715 45.9988 24.9581 45.7667C25.1619 45.6387 25.2091 45.527 25.2676 45.3252C25.4514 45.1737 25.5556 45.0864 25.8309 45.0248C27.254 44.7935 28.506 44.5365 29.8435 44.2701C29.9288 44.2609 30.068 44.1649 30.1691 44.1636C30.356 44.0679 30.4417 43.9734 30.6398 43.8527C30.925 43.6823 31.0978 43.5382 31.3628 43.3842C31.572 43.3107 31.6368 43.2151 31.657 43.0914C31.6648 43.0956 31.6595 43.0794 31.7601 43.0581C31.9303 42.9291 31.9999 42.8214 32.068 42.7132C32.0665 42.7127 32.0677 42.7154 32.1668 42.6875C32.3325 42.5499 32.3992 42.4403 32.4667 42.3311C32.4675 42.3315 32.4666 42.33 32.5627 42.3002C32.714 42.159 32.7693 42.0476 32.8414 41.9343C32.8583 41.9325 32.8491 41.9014 32.9277 41.8766C33.1131 41.7888 33.1567 41.6983 33.2031 41.5161C33.2692 41.4519 33.3154 41.2775 33.4286 41.1932C33.1829 40.6382 32.824 40.1676 32.4197 39.652C32.3742 39.607 32.2431 39.5996 32.1766 39.5058C31.9616 39.3698 31.813 39.3276 31.6651 39.2836C31.6656 39.2819 31.6618 39.2842 31.5941 39.192C31.3086 39.0271 31.0907 38.9545 30.87 38.892C30.8672 38.9023 30.8839 38.8884 30.8442 38.8095C30.7186 38.6271 30.6082 38.5908 30.3948 38.5711C30.3162 38.5204 30.128 38.496 30.0781 38.4085C29.9043 38.2672 29.7804 38.2133 29.6162 38.0729C29.5034 37.8748 29.4028 37.7953 29.2652 37.596C29.2378 37.0396 29.2194 36.6351 29.2803 36.1619C29.4631 35.9994 29.5667 35.9056 29.8005 35.8232C30.1028 35.8103 30.2749 35.786 30.5668 35.8305C31.5181 36.2769 32.3496 36.6545 33.262 37.1395C33.8777 37.296 34.6364 38.5885 34.9172 36.9428C34.9583 36.8881 34.9358 36.7553 35.0301 36.6574C35.047 36.1877 34.9696 35.816 34.8851 35.4575C34.878 35.4708 34.9033 35.4532 34.8643 35.3705C34.7342 35.182 34.6192 35.1468 34.4054 35.132C34.3305 35.0819 34.1493 35.0573 34.1011 34.9717C33.9277 34.8504 33.8025 34.8148 33.6062 34.7332C33.535 34.6873 33.3637 34.6721 33.3117 34.5866C33.1317 34.4646 33.0038 34.4282 32.8113 34.3434C32.7467 34.295 32.5835 34.2749 32.509 34.1733C32.0448 33.903 31.6551 33.7342 31.2217 33.4799C31.0952 33.2876 30.9862 33.218 30.8278 33.0861C30.7016 32.8971 30.5984 32.8075 30.4945 32.6023C30.4624 32.3352 30.4312 32.1839 30.4267 31.9414C30.4536 31.8502 30.4166 31.6641 30.4517 31.5893C30.4869 31.5145 30.4938 31.3507 30.5958 31.3063C30.7898 31.1521 30.8818 31.0425 31.1035 30.9317C31.4923 30.9258 31.7514 30.9209 32.0574 30.9977C32.1982 31.1872 32.3163 31.2237 32.5319 31.2383C32.6049 31.2879 32.7828 31.3103 32.8324 31.3961C33.0087 31.5184 33.1353 31.5549 33.3297 31.6377C33.3974 31.6842 33.5637 31.6975 33.6183 31.783C33.8031 31.9041 33.9332 31.9398 34.1259 32.0238C34.1886 32.0722 34.3486 32.0923 34.423 32.1935C34.9502 32.5079 35.403 32.7212 35.9878 32.9967C36.1275 31.9649 37.5603 30.9685 35.5845 30.1823C35.5054 30.134 35.3181 30.1171 35.2718 30.0386C35.1349 29.8556 35.0207 29.8204 34.8048 29.8027C34.7267 29.7512 34.5386 29.7251 34.4917 29.6414C34.3451 29.4533 34.2233 29.4176 34.0057 29.4032C33.9323 29.3558 33.7557 29.3388 33.7048 29.2545C33.5286 29.1351 33.4031 29.1 33.2104 29.0166C33.1431 28.9683 32.976 28.9479 32.9228 28.8555C32.7366 28.7089 32.6037 28.6546 32.4692 28.6046C32.4676 28.6089 32.4762 28.6045 32.4402 28.5141C32.2944 28.3527 32.1846 28.2816 32.0698 28.2179C32.0647 28.2254 32.0827 28.2206 32.0631 28.1071C31.9411 27.88 31.8386 27.7663 31.7556 27.5502C31.7566 27.2407 31.7382 27.0338 31.81 26.7674C31.9609 26.5823 32.0214 26.4566 32.0744 26.3258C32.0669 26.3206 32.0779 26.3347 32.1785 26.3166C32.3359 26.2627 32.3929 26.227 32.5918 26.1944C32.9226 26.1868 33.1116 26.1761 33.4077 26.2376C33.8344 26.4306 34.1539 26.5513 34.5176 26.7166C34.5618 26.7612 34.6904 26.768 34.7583 26.8615C34.9755 26.9968 35.125 27.0386 35.274 27.082C35.2737 27.0836 35.2771 27.0816 35.345 27.1735C35.6303 27.3392 35.8477 27.4128 36.0684 27.475C36.0716 27.4635 36.0524 27.4788 36.0932 27.5569C36.134 27.635 36.2823 27.7372 36.2823 27.7372C36.2823 27.7372 36.4655 27.7367 36.5508 27.7888C36.7032 27.848 36.7703 27.8553 36.878 27.9404C37.0303 27.9587 37.142 27.899 37.3053 27.8052C37.357 27.7711 37.3514 27.6515 37.4522 27.5577C38.0583 26.3375 38.0341 25.4396 36.4321 25.16C36.3896 25.1157 36.2637 25.111 36.1956 25.0165C35.9766 24.8797 35.8258 24.8375 35.6747 24.7957C35.6747 24.7957 35.6753 24.7954 35.6082 24.7023C35.3227 24.5348 35.1043 24.4603 34.8821 24.3996C34.8783 24.4135 34.9024 24.3963 34.8614 24.3163C34.7309 24.1332 34.618 24.0978 34.406 24.0803C34.3304 24.0302 34.1478 24.006 34.0975 23.9169C33.9208 23.7734 33.7944 23.7191 33.629 23.5788C33.5198 23.3809 33.4203 23.3026 33.2817 23.1069C33.2546 22.5523 33.2371 22.1491 33.2984 21.6786C33.4781 21.5176 33.5791 21.4239 33.8278 21.3404C34.2715 21.3436 34.5674 21.3365 34.9199 21.3738C34.9764 21.4182 35.1226 21.4287 35.2002 21.5315C35.6742 21.8026 36.0706 21.9708 36.4711 22.133C36.4753 22.1269 36.4634 22.1367 36.5035 22.2126C36.6272 22.3888 36.7343 22.4238 36.9485 22.4471C37.0982 22.5101 37.1645 22.5196 37.3122 22.6362C37.7824 22.9013 38.1711 23.0595 38.6972 23.2735C38.8104 22.6628 38.8957 22.2025 39.0428 21.6725C39.1046 21.6026 39.1165 21.4204 39.1606 21.3323C38.9608 21.0537 38.7169 20.8632 38.412 20.6232C38.3509 20.5737 38.1919 20.5533 38.1174 20.4513C37.6528 20.1853 37.2627 20.0212 36.8002 19.7707C36.516 19.6073 36.3042 19.5302 36.0496 19.3789C35.9239 19.2042 35.8173 19.1694 35.6081 19.1447C35.5293 19.0892 35.3368 19.0532 35.2906 18.9629C35.1212 18.8132 34.9979 18.7538 34.8737 18.6956C34.8727 18.6968 34.8753 18.695 34.8466 18.5955C34.7148 18.4041 34.6118 18.3122 34.508 18.1065C34.4751 17.8442 34.443 17.6956 34.4382 17.4559C34.4657 17.3646 34.4296 17.1778 34.5008 17.0673C35.0569 16.7803 35.5418 16.6038 36.073 16.5074C36.2109 16.6938 36.3267 16.7299 36.5419 16.7459C36.617 16.7965 36.799 16.8219 36.8469 16.908C37.0203 17.0307 37.1456 17.0673 37.3411 17.1497C37.4111 17.1954 37.5805 17.2087 37.6336 17.294C37.8152 17.4154 37.9436 17.4515 38.1365 17.536C38.2009 17.5843 38.3638 17.6041 38.4485 17.7109C39.0508 17.811 39.834 19.1475 40.0786 17.3927C40.0865 16.7044 40.0526 16.1721 40.0373 15.5227C39.9455 15.2042 39.835 15.0028 39.7188 14.7179C39.7131 14.6344 39.6114 14.4978 39.6102 14.3997C39.5107 14.2153 39.4124 14.1291 39.2957 13.9376C39.1314 13.6785 38.9854 13.5247 38.8226 13.2771C38.7328 13.06 38.6219 13.0001 38.4192 12.9011C38.0338 12.5918 37.7021 12.3852 37.32 12.086C37.1383 11.9418 37.0069 11.8903 36.8763 11.8368C36.877 11.8349 36.873 11.8372 36.8386 11.7577C36.7264 11.5694 36.6202 11.5307 36.4097 11.5085C36.3337 11.4549 36.1468 11.4255 36.0991 11.3409C35.9282 11.2198 35.8051 11.1832 35.6131 11.0991C35.5444 11.0517 35.3754 11.0346 35.3225 10.9485C35.1399 10.8302 35.0103 10.7981 34.7909 10.7148C34.5649 10.6458 34.4287 10.628 34.1903 10.5127C33.5453 10.2841 33.0024 10.153 32.3387 9.97751C31.9622 9.90984 31.7065 9.8865 31.3226 9.76571C28.8121 9.49829 26.4301 9.32833 23.9135 9.14675C23.6043 9.17251 23.4295 9.20988 23.1398 9.22826C22.8261 9.3086 22.6274 9.40792 22.2929 9.50572C21.9834 9.55043 21.8098 9.59665 21.5305 9.63571C21.3203 9.71218 21.2157 9.79582 21.0322 9.88859C20.9533 9.89773 20.837 10.0009 20.738 10.0061C20.5103 10.0684 20.4273 10.1621 20.2765 10.3173C19.9872 10.4848 19.8115 10.6274 19.5434 10.779C19.332 10.8571 19.2797 10.9577 19.2728 11.0908C19.2513 11.0918 19.26 11.1318 19.1787 11.1517C18.9857 11.2326 18.9407 11.3234 18.8969 11.5013C18.8316 11.5586 18.783 11.7212 18.6864 11.7699C18.6552 12.1003 18.7205 12.3819 18.8067 12.6495C18.8275 12.6355 18.777 12.6427 18.8198 12.7238C18.8626 12.8048 19.0353 12.8817 19.0353 12.8817C19.0353 12.8817 19.226 12.8813 19.3127 12.9575C19.5092 13.141 19.619 13.2482 19.714 13.4968C19.6713 13.9207 19.6433 14.2033 19.6271 14.4944C19.6388 14.503 19.6227 14.4794 19.5291 14.5173C19.3666 14.6632 19.2975 14.7713 19.2335 14.8824C19.2385 14.8855 19.2334 14.8754 19.1237 14.8975C18.9106 15.0175 18.8072 15.1153 18.5905 15.2023C18.3302 15.2236 18.1832 15.2555 17.8872 15.2702C16.6348 16.6068 16.6179 16.9752 17.7349 17.5831C18.0519 17.8721 18.2683 18.0966 18.4656 18.4138C18.4464 18.5065 18.4935 18.6901 18.4627 18.7782C18.432 18.8664 18.4266 19.052 18.3412 19.0979C18.1489 19.2288 18.0921 19.3375 17.99 19.5066C17.8068 19.6418 17.7194 19.7403 17.4783 19.8484C16.7731 20.3543 16.1562 20.8061 15.7213 21.3822C15.6266 21.5077 16.1828 22.0776 16.5107 22.4832C16.5822 22.5235 16.7472 22.5432 16.7902 22.6473C16.9463 22.8511 17.0594 22.9508 17.1545 23.1483C17.1446 23.4437 17.1526 23.6412 17.0592 23.9027C16.8961 24.1072 16.8345 24.2476 16.7908 24.3897C16.8086 24.3914 16.8017 24.358 16.691 24.3891C16.4803 24.5279 16.3804 24.6357 16.2095 24.7447C16.1385 24.7461 16.0246 24.8268 15.8902 24.8162C15.4578 24.9312 15.1597 25.0568 14.8107 25.2227C14.7599 25.263 14.761 25.3888 14.676 25.4563C14.5706 25.6588 14.5501 25.794 14.4828 26.0525C14.4296 26.3496 14.4231 26.5234 14.3434 26.7697C14.5923 27.0178 14.9144 27.1935 15.3246 27.4435C15.522 27.625 15.6314 27.7322 15.7279 27.9827C15.6848 28.4121 15.6544 28.6981 15.6275 28.9867C15.631 28.9893 15.6248 28.9832 15.5338 29.0206C15.3306 29.1369 15.2623 29.2417 15.2341 29.3709C15.2302 29.3694 15.2315 29.3771 15.123 29.3961C14.9135 29.5117 14.8125 29.6082 14.5956 29.7052C14.3302 29.7419 14.1809 29.7782 13.8882 29.8032C13.3343 30.5303 12.1168 31.2286 13.6668 32.0985C13.7138 32.1349 13.8306 32.1046 13.8943 32.2049C14.1001 32.3806 14.2422 32.4559 14.39 32.6057C14.3957 32.6802 14.4757 32.8087 14.4542 32.9328C14.4431 33.2237 14.4535 33.3906 14.3846 33.6458C14.081 33.9586 13.8567 34.1831 13.4771 34.4087C12.8564 34.7404 11.9925 35.0717 11.9932 35.4015C11.9964 36.9731 12.2344 38.5443 12.3994 40.2021C12.4098 40.2886 12.514 40.4317 12.515 40.5244C12.5768 40.7367 12.675 40.8127 12.8392 40.9568C13.0282 41.2382 13.1885 41.4078 13.3594 41.6554C13.4341 41.8331 13.5276 41.8802 13.6476 41.8989C13.6449 41.9229 13.6956 41.9191 13.7368 42.0295C14.1236 42.3378 14.4693 42.5358 14.8207 42.7227C14.8265 42.7117 14.8055 42.7261 14.8434 42.8087C14.8813 42.8912 15.0324 42.9998 15.0324 42.9998C15.0324 42.9998 15.2218 42.9953 15.3187 43.0405C15.4876 43.0885 15.5595 43.0915 15.7048 43.1786C15.9911 43.3342 16.2039 43.4057 16.4091 43.5922C16.284 43.9068 16.1666 44.1064 15.9697 44.3242C15.7823 44.4029 15.7389 44.4918 15.695 44.6713C15.6298 44.7334 15.5828 44.9032 15.4561 44.9936C14.554 46.6602 14.3301 48.2097 15.5982 49.769C15.6199 49.8501 15.7459 49.9671 15.7533 50.0541C15.8089 50.256 15.8933 50.3368 15.9995 50.5585C15.9856 53.1087 15.986 55.4838 15.8465 57.8973C15.0709 58.1714 14.4351 58.407 13.6984 58.6256C13.4736 58.6593 13.3497 58.71 13.2258 58.7606C13.107 58.5747 12.9883 58.3888 12.9578 57.9932C12.9741 56.8238 12.9022 55.8641 12.8303 54.9043C12.8303 54.9043 12.8246 54.9113 12.8036 54.8115C12.6631 54.6509 12.5437 54.5901 12.4242 54.5294C12.4242 54.5294 12.424 54.5301 12.3916 54.4455C12.2785 54.249 12.1678 54.2044 12.0272 54.2271C12.0272 54.2271 11.9224 54.1202 11.7897 54.0097C11.5176 53.8436 11.3781 53.788 11.2387 53.7324C11.2387 53.7324 11.2296 53.7619 11.2065 53.6617C11.0644 53.4992 10.9455 53.4368 10.8266 53.3744C10.8266 53.3744 10.8203 53.3869 10.7952 53.2897C10.6523 53.1321 10.5344 53.0717 10.4165 53.0113C10.4165 53.0113 10.4197 53.0048 10.3861 52.9154C10.2382 52.7684 10.1239 52.7108 10.0095 52.6533C9.93123 52.5465 9.85295 52.4397 9.65683 52.2002C9.46523 51.9473 9.35522 51.8844 9.20897 51.8788C9.20897 51.8788 9.21745 51.8617 9.18273 51.7721C9.03567 51.6186 8.92334 51.5548 8.811 51.4909C8.811 51.4909 8.8168 51.4801 8.78555 51.3881C8.64222 51.2287 8.53013 51.1612 8.41804 51.0938C8.41804 51.0938 8.41502 51.0992 8.39244 51.0012C8.25656 50.8321 8.14325 50.7611 8.02994 50.69C8.02994 50.69 8.01651 50.7146 8.00308 50.6106C7.87369 50.4347 7.75775 50.3629 7.6418 50.2911C7.6418 50.2911 7.6281 50.3227 7.61443 50.2156C7.48481 50.0259 7.36887 49.9432 7.25292 49.8605C7.1467 49.681 7.04048 49.5015 6.82808 49.1724C6.65579 48.9029 6.55254 48.8318 6.41215 48.8093C6.41215 48.8093 6.4108 48.812 6.39289 48.7087C6.26596 48.5184 6.15696 48.4315 6.04796 48.3446C6.04796 48.3446 6.00269 48.172 5.93361 48.0263C5.80447 47.7799 5.71437 47.7201 5.59422 47.7011C5.59422 47.7011 5.60908 47.6785 5.58415 47.5788C5.455 47.3969 5.35079 47.3148 5.24658 47.2326C5.24658 47.2326 5.23102 47.2738 5.22847 47.1387C4.972 46.6784 4.71808 46.3533 4.46416 46.0281C4.46416 46.0281 4.43738 45.8756 4.38237 45.7202C4.22941 45.4813 4.13145 45.3979 4.0335 45.3144C4.0335 45.3144 4.01177 45.141 3.96234 44.9764C3.86135 44.6868 3.76636 44.6114 3.62796 44.5853C3.62796 44.5853 3.60784 44.6143 3.6117 44.4779C3.35569 43.9047 3.09582 43.4677 2.83595 43.0308C2.83595 43.0308 2.81804 42.8626 2.77148 42.6663C2.51194 42.1068 2.29896 41.7436 2.08599 41.3803C2.08599 41.3803 2.09696 41.2656 2.05859 41.0845C1.77613 40.2925 1.53204 39.6815 1.28795 39.0705C1.27718 38.9437 1.26641 38.817 1.22202 38.4814C1.06556 37.9712 0.942711 37.6698 0.819863 37.3684C0.812181 37.1964 0.804498 37.0244 0.774057 36.5688C0.500866 34.361 0.250433 32.4369 0 30.5128C0.0171677 29.8599 0.0343362 29.207 0.105722 28.2654C0.228735 27.1706 0.29753 26.3645 0.366325 25.5584C0.428529 25.3297 0.490731 25.1011 0.625868 24.6437C0.862947 23.6533 1.02709 22.8916 1.19123 22.1299C1.19123 22.1299 1.27542 22.0183 1.37122 21.8508C1.64127 21.0695 1.81552 20.4558 1.98977 19.8421C1.98977 19.8421 2.07823 19.7465 2.18043 19.592C2.45968 18.9394 2.63674 18.4415 2.81379 17.9436C2.81379 17.9436 2.80309 17.9344 2.91376 17.8644C3.21713 17.3336 3.40984 16.8728 3.60255 16.412C3.73657 16.2347 3.87058 16.0574 4.12578 15.7168C4.32733 15.3507 4.4077 15.1479 4.48807 14.9451C4.48807 14.9451 4.45022 14.8838 4.57256 14.8593C4.88418 14.4828 5.07347 14.1307 5.26275 13.7785C5.26275 13.7785 5.227 13.7514 5.33171 13.7315C5.48368 13.5906 5.53092 13.4695 5.57817 13.3485C5.57817 13.3485 5.60724 13.3479 5.67773 13.3068C5.85498 13.199 5.89446 13.1064 5.86665 12.9878C5.86665 12.9878 5.99529 12.8504 6.11787 12.7175C6.29782 12.462 6.35519 12.3394 6.41255 12.2168C6.41255 12.2168 6.41087 12.2163 6.50345 12.1831C6.71513 12.0689 6.76746 11.9592 6.75303 11.8207C6.90341 11.675 7.05379 11.5294 7.33296 11.2365C7.5295 10.9654 7.59726 10.8415 7.66501 10.7177C7.66501 10.7177 7.63015 10.7075 7.73818 10.6897C7.90788 10.5539 7.96955 10.4359 8.03122 10.3179C8.03122 10.3179 8.0132 10.3112 8.11484 10.2851C8.28173 10.1485 8.34697 10.038 8.41222 9.92759C8.41222 9.92759 8.41534 9.92911 8.51337 9.90093C8.67634 9.763 8.74128 9.65324 8.80622 9.54348C8.80622 9.54348 8.81671 9.54812 8.91118 9.51596C9.07 9.37554 9.13435 9.2673 9.1987 9.15905C9.1987 9.15905 9.21721 9.16693 9.31104 9.13331C9.4748 8.9944 9.54472 8.88912 9.61464 8.78383C9.61464 8.78383 9.61795 8.78549 9.71843 8.76093C9.89211 8.62909 9.9653 8.52179 10.0385 8.4145C10.0385 8.4145 10.0194 8.40399 10.1266 8.38746C10.3085 8.26164 10.3833 8.15236 10.458 8.04308C10.458 8.04308 10.4281 8.02997 10.5402 8.01821C10.7387 7.89753 10.8251 7.78862 10.9114 7.6797C11.2329 7.45486 11.5544 7.23002 12.0364 6.8955C12.3194 6.72111 12.3888 6.62254 12.4051 6.49012C12.4051 6.49012 12.4223 6.49992 12.5216 6.47237C12.6996 6.34123 12.7782 6.23765 12.8568 6.13406C12.8568 6.13406 12.828 6.11977 12.9588 6.10979C13.4018 5.85158 13.7142 5.60336 14.0266 5.35513C14.0266 5.35513 14.0275 5.35465 14.1527 5.33882C14.6044 5.08654 14.9308 4.85008 15.2573 4.61362C15.2573 4.61362 15.2323 4.59225 15.3694 4.59024C15.8514 4.35217 16.1962 4.11611 16.541 3.88004C16.541 3.88004 16.7065 3.8567 16.8759 3.80719C17.1377 3.66595 17.2302 3.57422 17.3226 3.4825C17.3226 3.4825 17.4955 3.46696 17.6716 3.42254C17.9417 3.28752 18.0358 3.19692 18.1299 3.10632C18.1299 3.10632 18.3011 3.08866 18.4749 3.04223C18.7414 2.90408 18.834 2.81235 18.9266 2.72062C18.9266 2.72062 19.0992 2.70583 19.2784 2.66239C19.5603 2.53153 19.6629 2.44411 19.7656 2.35669C19.7656 2.35669 19.9172 2.34907 20.1152 2.30579C20.8115 2.04517 21.3099 1.82782 21.8083 1.61048C21.8083 1.61048 21.9434 1.61901 22.1275 1.58849C22.6281 1.43669 22.9444 1.31541 23.2607 1.19413C23.4405 1.18177 23.6203 1.16941 24.04 1.12382C24.3996 1.01174 24.5193 0.93288 24.639 0.854029Z" fill="#CC3102"/>
<path d="M63.9384 28.9691C63.9858 29.2656 64.0331 29.5621 63.9685 30.1245C63.7297 31.2634 63.6206 32.139 63.4727 33.0087C63.032 35.5994 62.576 38.1879 62.1261 40.7772C62.1261 40.7772 62.1389 40.7975 61.987 40.829C61.4011 41.9798 60.9671 43.0991 60.5331 44.2184C60.5331 44.2184 60.5397 44.238 60.3926 44.2621C59.9513 44.9174 59.657 45.5486 59.3628 46.1799C59.3628 46.1799 59.3305 46.15 59.2448 46.2072C59.0791 46.4675 58.9991 46.6708 58.919 46.874C58.919 46.874 58.9272 46.8997 58.8255 46.9491C58.673 47.1129 58.6222 47.2273 58.5714 47.3418C58.5714 47.3418 58.5394 47.3023 58.4599 47.3519C58.3384 47.528 58.2964 47.6545 58.2543 47.7811C58.2543 47.7811 58.2293 47.6731 58.1205 47.7443C57.9313 48.0357 57.8509 48.2557 57.7705 48.4757C57.7705 48.4757 57.7296 48.4389 57.6304 48.4895C57.3257 48.8784 57.1202 49.2169 56.9146 49.5553C56.9146 49.5553 56.9232 49.5731 56.7833 49.5921C56.4745 49.8695 56.3055 50.1278 56.122 50.4669C56.1074 50.5475 56.104 50.7112 56.104 50.7112C56.104 50.7112 56.1199 50.7178 56.0313 50.7169C55.9427 50.716 55.776 50.743 55.6733 50.7763C55.4968 50.9238 55.4229 51.0379 55.3419 51.1341C55.3348 51.1161 55.3729 51.1288 55.2701 51.1616C55.0964 51.3094 55.0256 51.4244 54.9466 51.5206C54.9384 51.5017 54.9787 51.5159 54.8745 51.5467C54.6991 51.6931 54.628 51.8087 54.5487 51.9052C54.5405 51.8861 54.5815 51.8995 54.4769 51.9296C54.2999 52.0748 54.2275 52.19 54.1467 52.285C54.1382 52.2649 54.18 52.282 54.0756 52.3106C53.8965 52.4522 53.8217 52.5653 53.7396 52.6601C53.7322 52.6419 53.7706 52.6559 53.6679 52.687C53.49 52.8303 53.415 52.9427 53.3349 53.0377C53.3299 53.0205 53.3653 53.0327 53.2634 53.0614C53.082 53.1974 53.0025 53.3047 52.9042 53.4941C52.8854 53.5763 52.8665 53.7435 52.8665 53.7435C52.8665 53.7435 52.8988 53.7565 52.7954 53.7469C52.6921 53.7372 52.4976 53.7621 52.3748 53.7725C52.0987 53.9403 51.9453 54.0977 51.7622 54.233C51.7324 54.2108 51.8039 54.2344 51.697 54.2474C51.5061 54.3654 51.4222 54.4705 51.3331 54.5571C51.3279 54.5387 51.3595 54.5623 51.2603 54.5849C51.0762 54.7047 50.9914 54.8019 50.8722 54.9843C50.8379 55.0696 50.7907 55.2465 50.7907 55.2465C50.6618 55.25 50.5395 55.2791 50.2196 55.3541C49.9029 55.4624 49.7906 55.5504 49.5626 55.6589C49.2892 55.8242 49.1313 55.9689 48.9645 56.1062C48.9557 56.0988 48.9758 56.0998 48.8732 56.1149C48.678 56.2233 48.5854 56.3166 48.49 56.4222C48.487 56.4346 48.4638 56.422 48.3496 56.4314C48.0492 56.5552 47.863 56.6697 47.5606 56.7988C47.261 56.9374 47.0776 57.0613 46.7434 57.1919C46.1782 57.4683 45.7639 57.7381 45.3445 58.0101C45.3395 58.0122 45.3285 58.0175 45.1781 58.0029C44.4717 58.2511 43.9158 58.5138 43.3516 58.7769C43.3433 58.7773 43.3282 58.7831 43.1697 58.7652C42.3219 59.0154 41.6326 59.2834 40.9384 59.5536C40.9335 59.5558 40.9232 59.5626 40.7546 59.542C39.6286 59.7661 38.6712 60.011 37.6306 60.293C37.5475 60.3302 37.3637 60.3294 37.1736 60.305C35.2734 60.2806 33.5633 60.2806 31.8532 60.2806C31.8881 60.1506 31.9231 60.0206 31.9581 59.8906C32.9135 59.4849 33.8689 59.0793 34.8761 58.6361C34.9279 58.5985 35.0572 58.6132 35.2314 58.6408C36.0143 58.423 36.6231 58.1777 37.2395 57.9288C37.2472 57.9252 37.2623 57.9178 37.4208 57.9314C38.1348 57.6875 38.6902 57.4299 39.2539 57.1773C39.2621 57.1823 39.2654 57.164 39.3835 57.1694C39.6916 57.0622 39.8817 56.9496 40.1291 56.7991C40.1865 56.7612 40.3258 56.7524 40.4412 56.7461C40.666 56.6429 40.7753 56.546 40.8871 56.4409C40.8896 56.4327 40.9067 56.4391 41.0569 56.4377C41.6152 56.1664 42.0235 55.8966 42.4349 55.6302C42.438 55.6335 42.4373 55.6234 42.5671 55.6288C42.872 55.4832 43.0471 55.332 43.2223 55.1809C43.2223 55.1809 43.2245 55.2304 43.3098 55.2162C43.4928 55.1073 43.5906 55.0126 43.6902 54.9135C43.692 54.909 43.703 54.9106 43.8215 54.9031C44.1118 54.7613 44.2837 54.6269 44.4596 54.5018C44.4637 54.5112 44.4473 54.502 44.5448 54.4816C44.7679 54.4021 44.8556 54.3103 44.9095 54.1693C44.9137 54.153 44.9478 54.1617 45.0609 54.1481C45.3301 53.9967 45.4863 53.8589 45.6463 53.7305C45.6502 53.74 45.6389 53.7279 45.7398 53.7059C45.9243 53.5835 46.0079 53.4832 46.1185 53.2979C46.1455 53.2129 46.1833 53.0391 46.1833 53.0391C46.1833 53.0391 46.366 53.0264 46.5708 53.0089C46.9168 52.8445 47.0581 52.6977 47.2023 52.5585C47.2052 52.5663 47.2073 52.5593 47.3159 52.5385C47.5017 52.4036 47.5789 52.2896 47.6641 52.1963C47.6722 52.217 47.6302 52.1982 47.7355 52.1723C47.917 52.0341 47.9934 51.9218 48.0774 51.8278C48.0852 51.8461 48.047 51.8309 48.1489 51.8008C48.3279 51.6612 48.4051 51.5517 48.4881 51.4579C48.4939 51.4736 48.4618 51.4606 48.5614 51.4275C48.7362 51.2852 48.8114 51.176 48.8922 51.0805C48.8979 51.0944 48.8687 51.0838 48.967 51.0494C49.14 50.9068 49.2149 50.7985 49.2955 50.7031C49.3012 50.7159 49.2743 50.7046 49.3717 50.6697C49.5432 50.5271 49.6175 50.4193 49.6977 50.3236C49.7036 50.3356 49.6784 50.3243 49.775 50.2889C49.9458 50.1462 50.02 50.0388 50.0993 49.943C50.1045 49.9546 50.0802 49.9444 50.1771 49.9086C50.3465 49.7642 50.4191 49.6556 50.4981 49.5592C50.5045 49.5715 50.4777 49.5612 50.5749 49.5235C50.743 49.3746 50.8138 49.2634 50.8918 49.1686C50.8991 49.1849 50.8645 49.1715 50.9658 49.1358C51.1338 48.9835 51.2006 48.8668 51.276 48.7687C51.2845 48.7873 51.2434 48.7765 51.3476 48.7414C51.5144 48.5848 51.5769 48.4634 51.646 48.3615C51.6525 48.3811 51.6117 48.3676 51.7242 48.3366C51.8839 48.1723 51.931 48.039 51.9782 47.9057C51.9782 47.9057 52.0103 47.9499 52.1097 47.9318C52.31 47.7052 52.4108 47.4967 52.5114 47.2877C52.5114 47.2877 52.5121 47.2876 52.6042 47.2436C52.7567 47.0858 52.8172 46.9721 52.8908 46.8733C52.904 46.8883 52.8645 46.8776 52.9635 46.8374C53.1135 46.6749 53.1644 46.5526 53.2313 46.4628C53.2472 46.4954 53.1935 46.4449 53.3172 46.4139C53.5238 46.1665 53.6068 45.95 53.6951 45.7374C53.7003 45.7412 53.6852 45.7397 53.8046 45.6939C54.1281 45.3083 54.3322 44.9685 54.6265 44.5616C54.7946 44.2928 54.8727 44.0911 55.0861 43.851C55.3893 43.3295 55.5573 42.8466 55.7201 42.3522C55.7149 42.3408 55.7396 42.3326 55.833 42.2697C55.9669 42.0703 56.0073 41.9338 56.053 41.7317C56.0582 41.6661 56.139 41.5592 56.2335 41.4952C56.3855 41.2234 56.443 41.0156 56.5043 40.8032C56.508 40.7987 56.512 40.7872 56.6571 40.7645C56.9924 40.1428 57.1827 39.5438 57.5138 38.8961C57.8226 38.1135 57.9904 37.3796 58.3048 36.5971C58.6563 35.6018 58.9663 34.6629 59.0466 33.7066C59.3023 30.6644 59.5047 27.617 59.6364 24.568C59.6538 24.1662 59.1415 23.7437 58.8746 23.3245C58.8748 23.3182 58.8665 23.312 58.8876 23.1462C58.6416 21.9452 58.3745 20.91 58.0382 19.8437C57.9689 19.8126 57.817 19.7934 57.817 19.7934C57.8064 19.6257 57.7958 19.458 57.8808 19.0756C57.7634 18.4281 57.5504 17.9954 57.2931 17.4955C57.2488 17.4284 57.229 17.2713 57.252 17.126C57.038 16.5359 56.801 16.0911 56.5158 15.5824C56.4675 15.5185 56.436 15.3639 56.4517 15.2374C56.3192 14.9243 56.1711 14.7377 56.023 14.551C56.023 14.551 56.0633 14.5562 56.0704 14.4476C55.9356 14.1554 55.7937 13.9718 55.6809 13.7705C55.7101 13.7528 55.6533 13.7859 55.6645 13.6651C55.5319 13.3666 55.3882 13.1888 55.2645 13.012C55.2845 13.013 55.2689 13.0482 55.2529 12.9509C55.1374 12.7676 55.038 12.6817 54.9263 12.5927C54.914 12.5896 54.923 12.5669 54.9119 12.4566C54.761 12.1856 54.6213 12.0249 54.4893 11.8637C54.497 11.8633 54.4851 11.8694 54.4869 11.7478C54.3312 11.4616 54.1737 11.2969 54.0379 11.1181C54.0595 11.104 54.0414 11.1508 54.0272 11.0518C53.9104 10.8674 53.8077 10.7821 53.7098 10.6946C53.7145 10.6924 53.7075 10.7007 53.6793 10.6149C53.587 10.419 53.4925 10.3431 53.3675 10.3015C53.3675 10.3015 53.2805 10.3177 53.2566 10.2582C53.2327 10.1986 53.2311 10.0587 53.2179 9.95101C53.092 9.75238 52.9792 9.66147 52.8769 9.56928C52.8874 9.56799 52.8723 9.58376 52.9021 9.45086C53.2119 9.11444 53.4919 8.91092 53.8923 8.76585C55.1308 9.94771 56.249 11.0711 57.3992 12.285C57.5419 12.4426 57.6525 12.5096 57.7536 12.5781C57.744 12.5796 57.7574 12.5646 57.7552 12.6906C58.0234 13.1125 58.2936 13.4085 58.5543 13.708C58.5447 13.7115 58.5551 13.6976 58.5743 13.7879C58.6509 13.9964 58.7438 14.0777 58.926 14.1788C58.9796 14.2352 59.0276 14.3804 59.0051 14.5276C58.9912 14.8635 58.9281 15.0941 59.019 15.2348C61.3544 18.8532 62.7524 22.7574 63.1527 26.9979C63.2163 27.6719 63.6668 28.3128 63.9384 28.9691Z" fill="#CC3102"/>
<path d="M34.8243 58.6735C33.8689 59.0792 32.9135 59.4849 31.9581 59.8906C31.9231 60.0206 31.8881 60.1506 31.8532 60.2806C33.5633 60.2806 35.2734 60.2806 37.1482 60.3774C37.313 60.4742 37.2575 60.6183 37.2575 60.6183C36.9596 60.6283 36.6616 60.6384 36.0609 60.6577C35.0533 60.7649 34.3486 60.8627 33.6438 60.9606C33.349 60.9602 33.0541 60.9599 32.4821 60.9627C32.0236 60.9857 31.8423 61.0056 31.661 61.0255C31.3697 60.9861 31.0785 60.9467 30.5165 60.8488C29.6512 60.7635 29.0565 60.7367 28.4618 60.7099C28.0448 60.6582 27.6277 60.6065 26.9814 60.4901C26.5033 60.4689 26.2543 60.5123 26.0054 60.5557C25.8353 60.5744 25.6651 60.5931 25.2493 60.6401C24.7861 60.7692 24.5684 60.87 24.3508 60.9708C24.3508 60.9708 24.1948 60.966 23.9934 60.9904C23.4696 61.1338 23.1474 61.2529 22.8251 61.3719C22.6487 61.3845 22.4723 61.3972 22.0612 61.4444C21.7121 61.558 21.5978 61.637 21.4835 61.716C21.4835 61.716 21.3549 61.701 21.1674 61.7271C20.6535 61.8677 20.327 61.9822 20.0006 62.0967C19.8291 62.1152 19.6576 62.1338 19.2461 62.1846C18.8811 62.2992 18.756 62.3817 18.631 62.4642C18.4972 62.4734 18.3635 62.4826 17.9896 62.5245C17.0056 62.7895 16.2618 63.022 15.518 63.2544C15.518 63.2544 15.3685 63.2444 15.1694 63.2671C14.6468 63.4082 14.3232 63.5267 13.9996 63.6451C13.825 63.6604 13.6504 63.6758 13.2389 63.7243C12.8842 63.8381 12.7662 63.9188 12.6483 63.9995C12.4152 64.0012 12.1822 64.0029 11.775 63.9313C11.475 63.7973 11.3491 63.7367 11.2232 63.6761C11.2232 63.6761 11.2214 63.679 11.2147 63.551C11.1811 63.2551 11.1542 63.0872 11.1273 62.9193C11.1741 62.76 11.2208 62.6008 11.3715 62.2483C11.5358 61.841 11.5962 61.6268 11.6566 61.4127C11.6566 61.4127 11.6303 61.3958 11.7507 61.3819C11.9916 61.2709 12.112 61.1738 12.2324 61.0767C12.365 61.0663 12.4976 61.0559 12.8703 61.0146C13.8585 60.7542 14.6066 60.5245 15.3546 60.2948C15.5051 60.2814 15.6555 60.2681 16.0298 60.2291C16.4571 60.105 16.6604 60.0067 16.8638 59.9083C17.0384 59.8921 17.2131 59.876 17.6265 59.8262C17.9858 59.7112 18.1063 59.6298 18.2268 59.5483C18.3669 59.538 18.507 59.5277 18.8723 59.4877C19.3248 59.3579 19.5522 59.2578 19.7796 59.1576C20.0392 59.163 20.2987 59.1684 20.8192 59.244C22.0712 59.3682 23.0623 59.4221 24.0534 59.476C24.8639 59.5198 25.6744 59.5637 26.7297 59.6396C27.2103 59.6277 27.4461 59.5838 27.6819 59.5399C27.9776 59.5406 28.2734 59.5413 28.864 59.5323C29.7412 59.4068 30.3234 59.2909 30.9055 59.1751C31.3247 59.1503 31.7439 59.1256 32.4437 59.0838C32.9503 58.9696 33.1763 58.8723 33.4024 58.775C33.551 58.7622 33.6997 58.7493 34.0799 58.709C34.4824 58.6788 34.6533 58.6762 34.8243 58.6735Z" fill="#CC3102"/>
<path d="M22.4812 12.9377C24.8057 13.1801 27.0015 13.433 29.1537 13.8768C29.5093 13.9502 29.9782 14.9517 29.8423 15.3567C29.705 15.7661 28.8408 16.2661 28.3656 16.2077C26.41 15.9671 24.4442 15.6499 22.5546 15.1249C21.0868 14.7171 21.4512 13.8113 22.4812 12.9377Z" fill="#CC3102"/>
<path d="M24.8251 28.1929C25.2759 28.8184 25.5738 29.4145 25.8716 30.0106C25.1914 30.2087 24.4856 30.6279 23.836 30.5603C22.3364 30.4042 20.8426 30.0823 19.3905 29.6829C18.7533 29.5076 18.2235 28.9789 17.645 28.6108C18.2487 28.1243 18.838 27.2528 19.4591 27.2318C20.7413 27.1886 22.0421 27.59 23.3314 27.8274C23.7842 27.9108 24.2256 28.0498 24.8251 28.1929Z" fill="#CC3102"/>
<path d="M24.8519 20.6045C23.7024 20.4094 22.6894 20.3349 21.7519 20.0419C21.2114 19.873 20.7929 19.3512 20.3195 18.9883C20.7308 18.5366 21.1998 17.6601 21.544 17.7024C23.7548 17.974 25.9482 18.4079 28.1169 18.9079C28.3616 18.9643 28.6248 19.8297 28.4994 20.2052C28.3777 20.5696 27.7726 21.0103 27.3691 21.0201C26.5901 21.039 25.8035 20.7782 24.8519 20.6045Z" fill="#CC3102"/>
<path d="M16.9409 32.4778C19.565 31.3788 21.7304 32.7767 24.0015 33.3028C24.2993 33.3717 24.6841 34.216 24.5604 34.5389C24.3981 34.9622 23.7251 35.5494 23.3508 35.502C21.2461 35.2356 19.1497 34.856 17.0968 34.3462C16.856 34.2864 16.8993 33.1917 16.9409 32.4778Z" fill="#CC3102"/>
<path d="M25.258 25.9651C25.258 25.9651 25.1169 25.8888 24.9257 25.7992C23.9736 25.548 23.2125 25.3863 22.4515 25.2245C22.3185 25.1779 22.1856 25.1311 21.8305 25.0071C21.2229 24.913 20.8376 24.8962 20.4523 24.8794C18.5952 24.3024 18.525 24.0488 20.0958 22.5551C20.7773 22.4341 21.1915 22.3833 21.6056 22.3325C21.7944 22.3508 21.9832 22.3691 22.4066 22.4258C22.7091 22.458 22.777 22.4518 22.8449 22.4457C23.0127 22.4929 23.1805 22.5402 23.5602 22.6739C24 22.7827 24.2279 22.8051 24.4558 22.8274C24.5913 22.873 24.7268 22.9186 25.0429 23.038C25.3638 23.1314 25.5042 23.151 25.6445 23.1707C25.8149 23.2093 25.9853 23.248 26.3631 23.3776C26.7799 23.5882 26.9893 23.7078 27.1987 23.8274C27.1987 23.8274 27.2025 23.948 27.2353 24.1351C27.2791 24.6051 27.2901 24.8881 27.3011 25.1711C27.0661 25.3655 26.831 25.56 26.3726 25.8358C25.8521 25.9332 25.5551 25.9491 25.258 25.9651Z" fill="#CC3102"/>
<path d="M20.7662 48.8107C19.3126 49.5822 18.1273 49.2519 17.7701 47.955C17.5852 47.2837 18.2053 45.8365 18.7352 45.7C19.4951 45.5043 20.6842 46.0037 21.3281 46.5751C21.6247 46.8384 21.0633 47.976 20.7662 48.8107Z" fill="#CC3102"/>
</svg>
