<svg width="80" height="80" viewBox="0 0 80 80" fill="none" xmlns="http://www.w3.org/2000/svg">
<g clip-path="url(#clip0_155_5777)">
<path d="M78.2332 19.4775C77.7743 17.6687 76.8792 16.0197 75.637 14.6946C74.3949 13.3695 72.8489 12.4147 71.1532 11.9252C64.9451 10.1192 39.9594 10.1192 39.9594 10.1192C39.9594 10.1192 14.9726 10.1738 8.76443 11.9798C7.06865 12.4694 5.5227 13.4243 4.28051 14.7494C3.03832 16.0745 2.14325 17.7236 1.68444 19.5325C-0.193377 31.2985 -0.921815 49.2272 1.736 60.5225C2.19486 62.3313 3.08995 63.9803 4.33214 65.3054C5.57432 66.6305 7.12025 67.5853 8.816 68.0748C15.0241 69.8808 40.0104 69.8808 40.0104 69.8808C40.0104 69.8808 64.9963 69.8808 71.2041 68.0748C72.8999 67.5853 74.4459 66.6305 75.6882 65.3055C76.9304 63.9804 77.8255 62.3314 78.2844 60.5225C80.2651 48.7398 80.8754 30.8222 78.2332 19.4775Z" fill="#FF0000"/>
<path d="M32.006 56.9155L52.7335 39.8409L32.006 22.7662V56.9155Z" fill="white"/>
</g>
<defs>
<clipPath id="clip0_155_5777">
<rect width="79.9986" height="80" fill="white"/>
</clipPath>
</defs>
</svg>
