<svg width="24" height="9" viewBox="0 0 24 9" fill="none" xmlns="http://www.w3.org/2000/svg">
<g clip-path="url(#clip0_205_10485)">
<path d="M11.3512 4.39682V7.03501H10.4649V0.519847H12.8156C13.0961 0.514312 13.3751 0.561304 13.6364 0.658111C13.8976 0.754918 14.136 0.899622 14.3377 1.08387C14.5414 1.25694 14.7036 1.46919 14.8133 1.70635C14.9229 1.94351 14.9776 2.20009 14.9735 2.45885C14.9793 2.719 14.9255 2.97725 14.8158 3.21593C14.706 3.4546 14.5429 3.66804 14.3377 3.84163C13.9266 4.21176 13.4193 4.39665 12.8156 4.3963H11.3512V4.39682ZM11.3512 1.32196V3.59626H12.8376C13.0005 3.60082 13.1627 3.57322 13.3137 3.51522C13.4647 3.45721 13.6012 3.37008 13.7145 3.25941C13.8272 3.15593 13.9168 3.03215 13.978 2.89541C14.0392 2.75866 14.0707 2.61172 14.0707 2.46327C14.0707 2.31482 14.0392 2.16788 13.978 2.03113C13.9168 1.89439 13.8272 1.77062 13.7145 1.66714C13.6026 1.55413 13.4666 1.46486 13.3154 1.40527C13.1642 1.34567 13.0013 1.31709 12.8376 1.32144H11.3512V1.32196Z" fill="#5F6368"/>
<path d="M17.0158 2.43176C17.6709 2.43176 18.188 2.59707 18.5671 2.92769C18.9463 3.25831 19.1356 3.71161 19.1353 4.28759V7.03495H18.2875V6.41634H18.249C17.882 6.92579 17.3939 7.18051 16.7846 7.18051C16.2646 7.18051 15.8295 7.03495 15.4794 6.74384C15.3114 6.61023 15.1771 6.4429 15.0862 6.25404C14.9953 6.06519 14.9503 5.85957 14.9542 5.65218C14.9542 5.1909 15.1388 4.82407 15.508 4.55167C15.8772 4.27928 16.3701 4.14273 16.9867 4.14204C17.5129 4.14204 17.9464 4.23301 18.2869 4.41495V4.22365C18.2879 4.08227 18.2556 3.94244 18.1923 3.81431C18.129 3.68619 18.0363 3.57297 17.9209 3.48288C17.6865 3.2832 17.381 3.17424 17.0654 3.17773C16.5703 3.17773 16.1785 3.37493 15.8901 3.76931L15.1095 3.3051C15.5389 2.72287 16.1743 2.43176 17.0158 2.43176ZM15.8692 5.67037C15.8686 5.77689 15.8949 5.88199 15.9461 5.97694C15.9972 6.07188 16.0716 6.15392 16.1631 6.2162C16.3591 6.36181 16.6024 6.43894 16.8518 6.43454C17.2258 6.43395 17.5843 6.29337 17.8487 6.04362C18.1423 5.78266 18.2891 5.47647 18.2891 5.12506C18.0128 4.91712 17.6274 4.81315 17.1331 4.81315C16.7731 4.81315 16.4729 4.89511 16.2325 5.05904C15.9897 5.22539 15.8692 5.4276 15.8692 5.67037Z" fill="#5F6368"/>
<path d="M24.0016 2.57739L21.0422 9.00002H20.1272L21.2255 6.75275L19.2795 2.57739H20.2428L21.6494 5.77961H21.6686L23.0366 2.57739H24.0016Z" fill="#5F6368"/>
<path d="M7.76971 3.82806C7.77004 3.573 7.74721 3.31839 7.70145 3.06702H3.96358V4.50853H6.10446C6.06065 4.73877 5.96793 4.95824 5.83188 5.15372C5.69583 5.3492 5.51927 5.51664 5.31284 5.64595V6.58166H6.59055C7.33867 5.9303 7.76971 4.96703 7.76971 3.82806Z" fill="#4285F4"/>
<path d="M3.96357 7.48574C5.03319 7.48574 5.9338 7.15408 6.59054 6.58226L5.31284 5.64654C4.95722 5.87423 4.4992 6.00419 3.96357 6.00419C2.92974 6.00419 2.05225 5.34608 1.73846 4.45923H0.422226V5.42353C0.75212 6.04343 1.25798 6.56455 1.88332 6.9287C2.50867 7.29285 3.22888 7.48571 3.96357 7.48574Z" fill="#34A853"/>
<path d="M1.73847 4.45924C1.57258 3.99453 1.57258 3.49127 1.73847 3.02656V2.06226H0.422233C0.144715 2.58374 0.000183105 3.15927 0.000183105 3.7429C0.000183105 4.32653 0.144715 4.90207 0.422233 5.42355L1.73847 4.45924Z" fill="#FBBC04"/>
<path d="M3.96357 1.48155C4.52881 1.47283 5.07499 1.6745 5.48404 2.04297L6.61531 0.974702C5.89797 0.338457 4.94765 -0.0108524 3.96357 1.42548e-06C3.22888 3.30448e-05 2.50867 0.192891 1.88332 0.557043C1.25798 0.921196 0.75212 1.44231 0.422226 2.06221L1.73846 3.02651C2.05225 2.13967 2.92974 1.48155 3.96357 1.48155Z" fill="#EA4335"/>
</g>
<defs>
<clipPath id="clip0_205_10485">
<rect width="24" height="9" fill="white"/>
</clipPath>
</defs>
</svg>
