<svg width="24" height="8" viewBox="0 0 24 8" fill="none" xmlns="http://www.w3.org/2000/svg">
<path d="M18.7868 1.63437C18.8861 1.55495 18.9357 1.51524 18.9854 1.47553C19.6753 0.889811 20.5589 0.95434 21.1496 1.64927C21.2091 1.71876 21.2389 1.72372 21.2985 1.66416C21.3382 1.61948 21.3829 1.58474 21.4226 1.54006C21.8842 1.08836 22.4947 0.95434 23.0656 1.20749C23.6662 1.47554 23.9888 1.94709 23.9938 2.60727C24.0037 4.03187 23.9988 5.45151 23.9988 6.87611C23.9988 7.38241 23.686 7.70009 23.1847 7.70009C22.9862 7.70009 22.7876 7.6852 22.5891 7.70506C22.3855 7.72491 22.326 7.66038 22.326 7.44694C22.3359 6.05709 22.3309 4.66723 22.3309 3.27738C22.3309 3.21782 22.3309 3.16321 22.3309 3.10365C22.326 2.781 22.1969 2.64698 21.8892 2.63209C21.6112 2.6172 21.4176 2.78597 21.3878 3.0689C21.3829 3.13343 21.3878 3.20292 21.3878 3.26745C21.3878 4.46868 21.3878 5.66495 21.3878 6.86618C21.3878 7.39234 21.085 7.70009 20.5589 7.69513C20.2908 7.69017 19.9285 7.81426 19.7746 7.64053C19.6406 7.49161 19.7299 7.13919 19.7299 6.87611C19.7299 5.64509 19.7299 4.40912 19.7299 3.17811C19.7299 2.74129 19.447 2.51792 19.0797 2.66684C18.8513 2.76115 18.7769 2.94481 18.7769 3.18307C18.7818 4.33466 18.7769 5.48129 18.7769 6.63288C18.7769 6.72223 18.7769 6.81654 18.7769 6.90589C18.762 7.38738 18.4542 7.69017 17.9777 7.69513C17.7792 7.70009 17.5806 7.68024 17.3821 7.70009C17.1686 7.71995 17.1041 7.66038 17.1091 7.43205C17.119 5.48129 17.114 3.53053 17.114 1.57481C17.114 1.49043 17.119 1.41101 17.114 1.32662C17.1041 1.21742 17.1488 1.18267 17.258 1.18267C17.7146 1.18764 18.1663 1.18764 18.623 1.18267C18.7372 1.18267 18.7918 1.21246 18.7818 1.33655C18.7719 1.4259 18.7818 1.50532 18.7868 1.63437Z" fill="#02B9EF"/>
<path d="M8.26362 4.32413C8.26362 5.00417 8.26362 5.67924 8.26362 6.35928C8.25865 7.24283 7.79702 7.69949 6.91347 7.70446C6.5263 7.70446 6.13416 7.70942 5.74699 7.70446C4.96272 7.69453 4.38692 7.17333 4.34721 6.38906C4.31743 5.82815 4.31246 5.26229 4.34224 4.70138C4.38195 3.89725 4.99746 3.33138 5.81152 3.32145C6.02496 3.31649 6.24337 3.32145 6.45681 3.32145C6.66529 3.31649 6.74471 3.19736 6.73974 2.99881C6.73974 2.80026 6.65039 2.71091 6.45184 2.72084C6.22847 2.7258 6.00511 2.7258 5.78174 2.72084C5.23572 2.71091 4.93293 2.41309 4.9379 1.877C4.9379 1.65859 4.83862 1.36573 4.98257 1.23667C5.10666 1.12747 5.3896 1.19696 5.60304 1.19696C6.15898 1.192 6.70996 1.19696 7.2659 1.19696C7.85659 1.19696 8.25865 1.59903 8.26362 2.19468C8.26858 2.89953 8.26362 3.61432 8.26362 4.32413ZM6.74471 5.45091C6.74471 5.36652 6.74471 5.2871 6.74471 5.20272C6.74471 4.69642 6.74471 4.69642 6.2384 4.71627C5.98525 4.7262 5.84626 4.85526 5.8413 5.11834C5.83634 5.32681 5.83634 5.53033 5.8413 5.73881C5.84626 6.0962 6.0051 6.19051 6.52134 6.2054C6.90355 6.21533 6.70996 5.94728 6.74471 5.79837C6.76456 5.68917 6.73974 5.56507 6.74471 5.45091Z" fill="#06306F"/>
<path d="M12.6819 3.78365C12.6819 4.5431 12.6918 5.30752 12.6769 6.06698C12.667 6.6527 12.528 7.18382 11.9621 7.49654C11.7338 7.62064 11.4856 7.69013 11.2275 7.69509C10.6567 7.70502 10.0858 7.69509 9.51499 7.70502C9.37601 7.70502 9.34622 7.65538 9.35119 7.53129C9.36112 7.32281 9.34623 7.1193 9.35615 6.91082C9.36608 6.51372 9.66887 6.21093 10.066 6.19604C10.3241 6.18611 10.5772 6.19107 10.8354 6.19604C11.0438 6.19604 11.158 6.11165 11.158 5.88828C11.158 5.65995 11.0488 5.58053 10.8403 5.57557C10.4929 5.56564 10.1454 5.61528 9.80289 5.516C9.2122 5.34227 8.78036 4.85086 8.76546 4.24031C8.73568 3.27238 8.75554 2.30445 8.75057 1.33651C8.75057 1.22731 8.78532 1.19256 8.89452 1.19753C9.30155 1.20249 9.70362 1.20746 10.1106 1.19753C10.2893 1.19256 10.2645 1.29184 10.2645 1.40104C10.2645 2.13072 10.2645 2.85542 10.2645 3.5851C10.2645 3.90278 10.4134 4.07155 10.6914 4.08147C11.019 4.0914 11.163 3.95738 11.163 3.62481C11.163 2.89017 11.1679 2.15057 11.158 1.41593C11.158 1.2422 11.2027 1.19256 11.3764 1.19753C11.7388 1.21242 12.1061 1.21738 12.4684 1.19753C12.667 1.1876 12.6968 1.26206 12.6918 1.43579C12.6769 2.2151 12.6819 2.99937 12.6819 3.78365Z" fill="#06306F"/>
<path d="M0.0339795 4.9106C0.0339795 4.10151 0.0339795 3.28745 0.0339795 2.47836C0.0339795 1.68416 0.520428 1.18778 1.31959 1.19771C1.84079 1.20267 2.36198 1.13815 2.87822 1.23742C3.5384 1.36648 3.95535 1.87775 3.96032 2.55778C3.96528 3.27753 3.96032 3.99727 3.96032 4.71702C3.96032 5.62042 3.42919 6.1714 2.52579 6.19622C2.25278 6.20615 1.97977 6.20118 1.70677 6.19622C1.58267 6.19125 1.52807 6.23097 1.53304 6.36499C1.54296 6.56354 1.538 6.76209 1.53304 6.96064C1.52311 7.38752 1.22032 7.69527 0.798399 7.70024C0.550211 7.7052 0.237494 7.80448 0.0786534 7.66053C-0.0702595 7.52651 0.0389433 7.20883 0.0339795 6.97057C0.0290157 6.28557 0.0339795 5.5956 0.0339795 4.9106ZM1.53304 3.69448C1.53304 3.85332 1.53304 4.0072 1.53304 4.16604C1.53304 4.72695 1.53304 4.72695 2.09394 4.67731C2.33717 4.65745 2.45133 4.53832 2.4563 4.2951C2.46126 4.01713 2.44637 3.73419 2.46126 3.45622C2.49104 2.65209 2.34213 2.73151 1.68691 2.72655C1.56778 2.72655 1.52807 2.7613 1.52807 2.88043C1.538 3.14847 1.53304 3.42148 1.53304 3.69448Z" fill="#06306F"/>
<path d="M14.0862 4.92026C14.0862 4.26008 14.0813 3.59494 14.0912 2.93476C14.0912 2.78088 14.0564 2.71635 13.8877 2.72132C13.6643 2.73124 13.3665 2.79577 13.2424 2.68657C13.0885 2.54262 13.2076 2.23487 13.1878 1.99661C13.1878 1.98172 13.1878 1.96186 13.1878 1.94697C13.1878 1.71367 13.1133 1.44067 13.2126 1.26693C13.3119 1.0932 13.6147 1.20241 13.8281 1.1478C14.25 1.0386 14.5677 0.795377 14.8258 0.457841C15.0045 0.229508 15.2279 0.0657037 15.5158 0.0111024C15.6697 -0.0186802 15.764 0.00117498 15.7541 0.199725C15.7392 0.477696 15.754 0.760631 15.7491 1.04357C15.7441 1.1627 15.7888 1.20241 15.9079 1.19744C16.1065 1.19248 16.305 1.20241 16.5036 1.19248C16.6227 1.18751 16.6624 1.23219 16.6575 1.35132C16.6525 1.75835 16.6525 2.16041 16.6575 2.56744C16.6575 2.68161 16.6277 2.74117 16.5036 2.72628C16.4788 2.72132 16.4539 2.72628 16.4291 2.72628C16.2107 2.74614 15.9079 2.627 15.7938 2.77592C15.6846 2.9149 15.7541 3.2028 15.7541 3.42617C15.7541 4.77631 15.7491 6.12149 15.759 7.47164C15.759 7.66026 15.7094 7.71983 15.5208 7.70493C15.3421 7.69004 15.1584 7.70493 14.9747 7.69997C14.4387 7.68012 14.0862 7.31776 14.0862 6.78167C14.0862 6.1612 14.0862 5.54073 14.0862 4.92026Z" fill="#02B9EF"/>
</svg>
