<svg width="24" height="24" viewBox="0 0 24 24" fill="none" xmlns="http://www.w3.org/2000/svg">
<path d="M18.5 17.838C19.53 17.687 20.263 17.394 20.828 16.828C22 15.657 22 13.771 22 10C22 6.229 22 4.343 20.828 3.172C19.656 2.001 17.771 2 14 2H10C6.229 2 4.343 2 3.172 3.172C2.001 4.344 2 6.229 2 10C2 13.771 2 15.657 3.172 16.828C3.98 17.637 5.128 17.888 7 17.965" stroke="#CC3102" stroke-width="1.5" stroke-linecap="round"/>
<path d="M17 7H7" stroke="#CC3102" stroke-width="1.5" stroke-linecap="round" stroke-linejoin="round"/>
<path d="M14.5 14.5C14.5 15.163 14.2366 15.7989 13.7678 16.2678C13.2989 16.7366 12.663 17 12 17C11.337 17 10.7011 16.7366 10.2322 16.2678C9.76339 15.7989 9.5 15.163 9.5 14.5C9.5 13.837 9.76339 13.2011 10.2322 12.7322C10.7011 12.2634 11.337 12 12 12C12.663 12 13.2989 12.2634 13.7678 12.7322C14.2366 13.2011 14.5 13.837 14.5 14.5Z" stroke="#CC3102" stroke-width="1.5"/>
<path d="M9.5 14.5C9.5 18.566 11.222 20.87 12 22L13.5 19L15.25 20L17 21C16.265 20.289 15.506 18.047 15.506 18.047" stroke="#CC3102" stroke-width="1.5" stroke-linecap="round" stroke-linejoin="round"/>
</svg>
