<svg width="24" height="24" viewBox="0 0 24 24" fill="none" xmlns="http://www.w3.org/2000/svg">
<path d="M17.52 7.20003C17.28 7.09503 17.025 7.00503 16.755 6.91503L19.62 1.96503L18 1.03503L14.85 6.46503C13.9078 6.31199 12.9546 6.23673 12 6.24003C11.086 6.24062 10.1733 6.31082 9.27 6.45003L6.15 1.03503L4.5 1.96503L7.365 6.88503C7.06304 6.96935 6.76733 7.07461 6.48 7.20003C4.11 8.16003 3.75 9.48003 3.75 10.2V19.05C3.75 19.74 4.11 21.06 6.48 22.05C8.2454 22.7021 10.1186 23.0126 12 22.965C13.8833 23.003 15.7566 22.6823 17.52 22.02C19.89 21.045 20.25 19.725 20.25 19.02V10.185C20.25 9.48003 19.89 8.16003 17.52 7.20003ZM7.185 9.00003C7.55754 8.8534 7.93816 8.7282 8.325 8.62503L9.51 10.68L11.13 9.73503L10.29 8.23503C10.8575 8.16543 11.4283 8.12538 12 8.11503C12.6164 8.11842 13.2322 8.15347 13.845 8.22003L13.005 9.72003L14.625 10.665L15.795 8.65503C17.445 9.10503 18.375 9.79503 18.375 10.245C18.375 10.695 17.895 11.055 16.875 11.49C15.3124 12.0476 13.6579 12.3022 12 12.24C8.04 12.24 5.625 10.905 5.625 10.185C5.625 9.87003 6.105 9.37503 7.185 9.00003ZM16.815 20.355C15.2704 20.9 13.6369 21.1494 12 21.09C8.04 21.09 5.625 19.755 5.625 19.035V17.19C5.9027 17.3399 6.1881 17.4751 6.48 17.595C8.24341 18.2573 10.1167 18.578 12 18.54C13.8833 18.578 15.7566 18.2573 17.52 17.595C17.8119 17.4751 18.0973 17.3399 18.375 17.19V19.035C18.375 19.335 17.895 19.845 16.815 20.28V20.355ZM16.815 15.93C15.2704 16.475 13.6369 16.7244 12 16.665C8.04 16.665 5.625 15.33 5.625 14.61V12.765C5.9027 12.9149 6.1881 13.0501 6.48 13.17C8.24341 13.8323 10.1167 14.153 12 14.115C13.8833 14.153 15.7566 13.8323 17.52 13.17C17.8119 13.0501 18.0973 12.9149 18.375 12.765V14.61C18.375 14.91 17.895 15.42 16.815 15.855V15.93Z" fill="#CC3102"/>
</svg>
