<svg width="24" height="24" viewBox="0 0 24 24" fill="none" xmlns="http://www.w3.org/2000/svg">
<path d="M21.0656 1.2323C20.8125 1.3523 20.3813 1.56042 19.7906 1.89511C18.9657 2.36292 18.0235 3.00324 17.6391 3.50152C17.5547 3.61074 17.4047 3.98855 17.3203 4.31011C17.2641 4.52058 17.2547 4.5923 17.236 4.69683L19.2985 6.75933C19.4016 6.74058 19.4766 6.73121 19.6875 6.67496C20.011 6.59058 20.3906 6.44058 20.4985 6.35621C20.9953 5.97183 21.6375 5.03433 22.1016 4.2098C22.4391 3.61824 22.6453 3.18746 22.7672 2.93292L21.0656 1.2323ZM20.3906 2.54621L21.4547 3.60699L20.8547 4.20417L19.7906 3.14339L20.3906 2.54621ZM16.7766 5.42808L1.99174 20.2171C2.36018 20.3578 2.72581 20.6062 3.05909 20.939C3.39143 21.2718 3.63893 21.6375 3.7819 22.0031L18.5672 7.21871L16.7766 5.42808ZM16.3875 6.86714H16.3922C16.5877 6.86994 16.7744 6.949 16.9125 7.08746C17.0528 7.22806 17.1316 7.41855 17.1316 7.61714C17.1316 7.81574 17.0528 8.00623 16.9125 8.14683C16.8428 8.21699 16.7599 8.27266 16.6686 8.31066C16.5773 8.34865 16.4794 8.36821 16.3805 8.36821C16.2816 8.36821 16.1837 8.34865 16.0924 8.31066C16.0011 8.27266 15.9182 8.21699 15.8485 8.14683C15.7082 8.00623 15.6294 7.81574 15.6294 7.61714C15.6294 7.41855 15.7082 7.22806 15.8485 7.08746C15.9191 7.01665 16.0032 6.96068 16.0957 6.92284C16.1883 6.88501 16.2875 6.86607 16.3875 6.86714ZM14.2735 8.99058C14.4667 8.99334 14.6514 9.07058 14.7891 9.20621C14.8592 9.27591 14.9149 9.3588 14.9529 9.45011C14.9909 9.54142 15.0105 9.63934 15.0105 9.73824C15.0105 9.83713 14.9909 9.93505 14.9529 10.0264C14.9149 10.1177 14.8592 10.2006 14.7891 10.2703C14.6485 10.4105 14.458 10.4893 14.2594 10.4893C14.0608 10.4893 13.8703 10.4105 13.7297 10.2703C13.6596 10.2006 13.6039 10.1177 13.5659 10.0264C13.5279 9.93505 13.5083 9.83713 13.5083 9.73824C13.5083 9.63934 13.5279 9.54142 13.5659 9.45011C13.6039 9.3588 13.6596 9.27591 13.7297 9.20621C13.8013 9.13567 13.8863 9.08024 13.9797 9.0432C14.0731 9.00616 14.173 8.98826 14.2735 8.99058ZM12.15 11.1093C12.3456 11.1121 12.5323 11.1912 12.6703 11.3296C12.8106 11.4702 12.8894 11.6607 12.8894 11.8593C12.8894 12.0579 12.8106 12.2484 12.6703 12.389C12.5297 12.5293 12.3392 12.608 12.1406 12.608C11.9421 12.608 11.7516 12.5293 11.611 12.389C11.4707 12.2484 11.3919 12.0579 11.3919 11.8593C11.3919 11.6607 11.4707 11.4702 11.611 11.3296C11.6816 11.2588 11.7657 11.2029 11.8582 11.165C11.9508 11.1272 12.05 11.1083 12.15 11.1093ZM10.0266 13.2328H10.0313C10.2252 13.2368 10.41 13.3157 10.5469 13.4531C10.6872 13.5937 10.7659 13.7842 10.7659 13.9828C10.7659 14.1814 10.6872 14.3719 10.5469 14.5125C10.4063 14.6527 10.2158 14.7315 10.0172 14.7315C9.81861 14.7315 9.62812 14.6527 9.48752 14.5125C9.34726 14.3719 9.2685 14.1814 9.2685 13.9828C9.2685 13.7842 9.34726 13.5937 9.48752 13.4531C9.55815 13.3823 9.64222 13.3263 9.7348 13.2885C9.82737 13.2506 9.92658 13.2317 10.0266 13.2328ZM7.90784 15.3562C8.1027 15.3578 8.28931 15.4351 8.42815 15.5718C8.4983 15.6415 8.55398 15.7244 8.59197 15.8157C8.62997 15.907 8.64953 16.005 8.64953 16.1039C8.64953 16.2028 8.62997 16.3007 8.59197 16.392C8.55398 16.4833 8.4983 16.5662 8.42815 16.6359C8.35844 16.706 8.27555 16.7617 8.18424 16.7997C8.09294 16.8377 7.99501 16.8573 7.89612 16.8573C7.79722 16.8573 7.6993 16.8377 7.60799 16.7997C7.51668 16.7617 7.43379 16.706 7.36409 16.6359C7.29393 16.5662 7.23826 16.4833 7.20026 16.392C7.16227 16.3007 7.14271 16.2028 7.14271 16.1039C7.14271 16.005 7.16227 15.907 7.20026 15.8157C7.23826 15.7244 7.29393 15.6415 7.36409 15.5718C7.43565 15.5013 7.52067 15.4459 7.61407 15.4088C7.70748 15.3718 7.80738 15.3539 7.90784 15.3562ZM1.36127 20.9296C1.29377 20.9296 1.26143 20.9484 1.25581 20.9531C1.24596 20.9625 1.19956 21.0609 1.27596 21.3046C1.35565 21.5484 1.55112 21.8718 1.8394 22.1578C2.12768 22.4484 2.44924 22.6453 2.6944 22.725C2.93627 22.8 3.03612 22.7531 3.04596 22.7437C3.05581 22.7343 3.10221 22.6312 3.02581 22.3921C2.94659 22.1484 2.75065 21.825 2.46237 21.5343C2.17409 21.2484 1.85252 21.0515 1.60737 20.9718C1.5169 20.9437 1.44612 20.9343 1.39268 20.9296H1.36127Z" fill="#CC3102"/>
</svg>
