<svg width="24" height="24" viewBox="0 0 24 24" fill="none" xmlns="http://www.w3.org/2000/svg">
<path d="M19 10C16.995 9.368 14.588 9 12 9C9.412 9 7.005 9.368 5 10V13.5C7.005 12.868 9.412 12.5 12 12.5C14.588 12.5 16.995 12.868 19 13.5V10Z" stroke="#CC3102" stroke-width="1.5" stroke-linejoin="round"/>
<path d="M19.0005 13V15.023C19.0005 17.154 17.9685 19.129 16.2815 20.225L14.8815 21.135C14.0266 21.6993 13.0248 22.0001 12.0005 22.0001C10.9761 22.0001 9.97436 21.6993 9.11946 21.135L7.71946 20.225C6.03246 19.13 5.00046 17.155 5.00046 15.023V13M19.0005 10L20.1265 9.407C21.3895 8.58 22.0205 8.165 22.0005 7.573C21.9795 6.981 21.3205 6.621 20.0035 5.901L15.2755 3.318C13.6685 2.439 12.8655 2 12.0005 2C11.1355 2 10.3325 2.44 8.72546 3.318L3.99846 5.9C2.68046 6.621 2.02046 6.981 2.00046 7.573C1.98046 8.165 2.61046 8.579 3.87346 9.407L5.00046 10" stroke="#CC3102" stroke-width="1.5" stroke-linecap="round"/>
</svg>
