<svg width="24" height="24" viewBox="0 0 24 24" fill="none" xmlns="http://www.w3.org/2000/svg">
<path d="M11.6484 14.0471C11.5377 14.1617 11.4053 14.2532 11.2589 14.316C11.1125 14.3789 10.955 14.412 10.7957 14.4134C10.6364 14.4148 10.4783 14.3844 10.3309 14.3241C10.1834 14.2638 10.0494 14.1747 9.93674 14.062C9.82407 13.9493 9.73497 13.8153 9.67463 13.6679C9.61429 13.5204 9.58393 13.3624 9.58532 13.203C9.5867 13.0437 9.6198 12.8862 9.68269 12.7398C9.74558 12.5934 9.837 12.461 9.95162 12.3503C10.1779 12.1317 10.4811 12.0108 10.7957 12.0135C11.1103 12.0163 11.4113 12.1425 11.6338 12.3649C11.8563 12.5874 11.9825 12.8884 11.9852 13.203C11.988 13.5177 11.867 13.8208 11.6484 14.0471ZM18.3084 2.77193C18.553 2.52776 18.8844 2.39062 19.23 2.39062C19.5756 2.39062 19.9071 2.52776 20.1516 2.77193L21.2268 3.84713C21.471 4.09169 21.6081 4.42314 21.6081 4.76873C21.6081 5.11431 21.471 5.44576 21.2268 5.69033L15.978 10.9391C16.1989 11.2386 16.3517 11.5827 16.4256 11.9474C16.4995 12.3121 16.4928 12.6885 16.4059 13.0504C16.3191 13.4122 16.1541 13.7507 15.9226 14.042C15.6912 14.3334 15.3988 14.5706 15.066 14.7371L14.2536 15.1427C14.1111 15.2139 13.9961 15.3301 13.9262 15.4733C13.8564 15.6164 13.8356 15.7786 13.8672 15.9347L13.8804 16.0043C14.0453 16.8299 13.9734 17.6853 13.673 18.4718C13.3725 19.2583 12.8558 19.9438 12.1824 20.4491C11.0754 21.2796 9.70595 21.6828 8.32554 21.5847C6.94513 21.4866 5.64645 20.8938 4.66802 19.9151L4.08362 19.3307C3.10493 18.3523 2.5121 17.0536 2.414 15.6732C2.31591 14.2928 2.71913 12.9233 3.54962 11.8163C4.05497 11.143 4.74045 10.6262 5.52693 10.3258C6.31341 10.0253 7.16882 9.95341 7.99442 10.1183L8.06522 10.1327C8.2213 10.1639 8.38331 10.1429 8.52624 10.0728C8.66916 10.0028 8.78505 9.8876 8.85602 9.74513L9.26282 8.93273C9.42932 8.60011 9.66652 8.30791 9.95779 8.07658C10.2491 7.84525 10.5874 7.68037 10.9491 7.59349C11.3107 7.50662 11.687 7.49984 12.0516 7.57364C12.4162 7.64744 12.7602 7.80003 13.0596 8.02073L18.3084 2.77193ZM19.3044 3.62153C19.2848 3.60196 19.2583 3.59097 19.2306 3.59097C19.2029 3.59097 19.1764 3.60196 19.1568 3.62153L17.7588 5.01953L18.9804 6.23993L20.3784 4.84193C20.3881 4.83233 20.3957 4.82093 20.401 4.80837C20.4062 4.7958 20.4089 4.78233 20.4089 4.76873C20.4089 4.75512 20.4062 4.74165 20.401 4.72908C20.3957 4.71652 20.3881 4.70512 20.3784 4.69553L19.3044 3.62153ZM18.132 7.08953L16.9104 5.86793L13.5036 9.27353C13.3911 9.38601 13.2385 9.4492 13.0794 9.4492C12.9203 9.4492 12.7677 9.38601 12.6552 9.27353L12.4992 9.11753C12.3478 8.96623 12.1626 8.85308 11.9589 8.78738C11.7551 8.72169 11.5387 8.70534 11.3274 8.73967C11.1162 8.774 10.9161 8.85805 10.7436 8.98487C10.5712 9.11169 10.4313 9.27767 10.3356 9.46913L9.92882 10.2827C9.73984 10.6605 9.43187 10.9655 9.05237 11.151C8.67288 11.3364 8.24293 11.3918 7.82882 11.3087L7.75922 11.2955C7.15568 11.1749 6.53034 11.2274 5.95536 11.447C5.38038 11.6665 4.87919 12.0442 4.50962 12.5363C3.85239 13.4122 3.53327 14.4959 3.61087 15.5882C3.68846 16.6805 4.15757 17.7081 4.93202 18.4823L5.51642 19.0667C6.29062 19.8412 7.31826 20.3103 8.41057 20.3879C9.50287 20.4655 10.5865 20.1463 11.4624 19.4891C11.9548 19.1197 12.3327 18.6186 12.5524 18.0436C12.7722 17.4686 12.8249 16.8432 12.7044 16.2395L12.69 16.1699C12.607 15.7557 12.6627 15.3256 12.8483 14.9461C13.0339 14.5666 13.3393 14.2587 13.7172 14.0699L14.5296 13.6631C15.354 13.2503 15.5328 12.1511 14.8812 11.4983L14.7252 11.3435C14.6127 11.231 14.5495 11.0784 14.5495 10.9193C14.5495 10.7602 14.6127 10.6076 14.7252 10.4951L18.132 7.08953Z" fill="#CC3102"/>
</svg>
