<svg width="20" height="20" viewBox="0 0 20 20" fill="none" xmlns="http://www.w3.org/2000/svg">
<path d="M10 2.47461C10.01 2.47461 10.02 2.47775 10.0283 2.4834C10.0366 2.4891 10.0433 2.49748 10.0469 2.50684L10.0498 2.51562L11.7705 6.84961V6.84863C11.8569 7.06933 12.0036 7.26153 12.1943 7.40234C12.386 7.54386 12.6149 7.62755 12.8525 7.64453H12.8564L17.4707 7.94434C17.4886 7.94555 17.4939 7.95048 17.4971 7.95312C17.5033 7.95845 17.5131 7.97068 17.5195 7.99121C17.526 8.01196 17.5259 8.03095 17.5225 8.04395C17.5199 8.0535 17.5148 8.06533 17.4971 8.08008L13.9639 11.0215L13.9609 11.0234C13.7761 11.1792 13.639 11.384 13.5654 11.6143C13.4918 11.8445 13.4848 12.0911 13.5449 12.3252V12.3242L14.6826 16.8018C14.6896 16.8294 14.6859 16.8446 14.6826 16.8535C14.6782 16.8653 14.6699 16.878 14.6572 16.8877C14.6444 16.8974 14.6336 16.9001 14.6299 16.9004C14.6284 16.9005 14.627 16.8999 14.625 16.8994C14.623 16.8989 14.6166 16.897 14.6064 16.8906L10.666 14.3945H10.667C10.4677 14.2677 10.2362 14.2002 10 14.2002C9.76378 14.2002 9.53227 14.2677 9.33301 14.3945L5.67285 16.7139C5.6301 16.741 5.59668 16.7459 5.57129 16.7441C5.54211 16.7421 5.50751 16.73 5.47461 16.7051C5.41043 16.6563 5.37381 16.5773 5.39941 16.4766L6.4541 12.3242L6.45508 12.3252C6.51525 12.0911 6.50818 11.8445 6.43457 11.6143C6.36096 11.384 6.22387 11.1792 6.03906 11.0234L6.03613 11.0215L2.50293 8.08008C2.4852 8.06533 2.48006 8.0535 2.47754 8.04395C2.47414 8.03095 2.47402 8.01196 2.48047 7.99121C2.4869 7.97068 2.49671 7.95845 2.50293 7.95312C2.50606 7.95048 2.51138 7.94555 2.5293 7.94434L7.14355 7.64453H7.14746C7.38513 7.62755 7.61396 7.54386 7.80566 7.40234C7.99626 7.2616 8.14211 7.06919 8.22852 6.84863L8.22949 6.84961L9.9502 2.51562L9.95312 2.50684C9.95673 2.49747 9.96342 2.4891 9.97168 2.4834C9.97997 2.47774 9.98996 2.47461 10 2.47461Z" stroke="#CC3102" stroke-width="1.2" stroke-linecap="round" stroke-linejoin="round"/>
</svg>
