<svg width="24" height="24" viewBox="0 0 24 24" fill="none" xmlns="http://www.w3.org/2000/svg">
<g clip-path="url(#clip0_247_8215)">
<path fill-rule="evenodd" clip-rule="evenodd" d="M9.63999 1.01C9.5098 1.00257 9.37937 1.00023 9.24899 1.003C9.05699 1.003 8.99099 1.003 8.93399 1.008C8.64243 1.03127 8.36403 1.13928 8.13306 1.31873C7.90208 1.49817 7.72861 1.74124 7.63399 2.018C7.60301 2.11823 7.57599 2.21964 7.55299 2.322L7.24899 3.542C7.14434 3.95882 6.90355 4.32879 6.56481 4.59326C6.22607 4.85773 5.80875 5.00158 5.37899 5.002C4.64799 5.002 3.97899 4.589 3.64899 3.932L3.37799 3.389C3.35217 3.33339 3.32381 3.279 3.29299 3.226C3.25285 3.16433 3.1996 3.11227 3.13702 3.07355C3.07445 3.03483 3.0041 3.0104 2.93099 3.002C2.86974 2.99818 2.80834 2.99718 2.74699 2.999H1.18699L2.25699 6.199C2.37622 6.55746 2.57118 6.88606 2.82864 7.1625C3.0861 7.43894 3.40003 7.65674 3.74911 7.80112C4.0982 7.9455 4.47427 8.01307 4.85178 7.99924C5.22929 7.98542 5.5994 7.89052 5.93699 7.721L7.27699 7.051C7.35333 7.01296 7.43814 6.99508 7.52334 6.99906C7.60855 7.00304 7.69132 7.02876 7.76378 7.07376C7.83624 7.11876 7.89598 7.18155 7.93733 7.25615C7.97867 7.33076 8.00025 7.4147 7.99999 7.5C7.99999 8.173 7.78799 9.37 7.47499 10.84C7.15799 12.32 6.72499 14.13 6.26499 16.06C5.40699 19.62 8.09499 23 11.765 23H14.205C16.645 23 18.455 20.73 17.915 18.35C17.7749 17.7344 17.793 17.0933 17.9675 16.4866C18.142 15.8798 18.4673 15.3271 18.913 14.88L19.679 14.114C19.7873 14.0056 19.9159 13.9196 20.0574 13.8609C20.199 13.8022 20.3507 13.772 20.504 13.772C20.6572 13.772 20.809 13.8022 20.9505 13.8609C21.0921 13.9196 21.2207 14.0056 21.329 14.114C21.399 14.184 21.516 14.178 21.579 14.1L22.122 13.422C22.267 13.241 22.361 13.122 22.427 13.029C22.4632 12.9832 22.4925 12.9323 22.514 12.878C22.5371 12.8042 22.5429 12.7261 22.5307 12.6498C22.5186 12.5734 22.4889 12.5009 22.444 12.438C22.4066 12.3929 22.3628 12.3534 22.314 12.321C22.222 12.251 22.096 12.169 21.902 12.041L16.332 8.381C15.95 8.13 15.868 8.085 15.801 8.07C15.6815 8.04298 15.5562 8.06077 15.449 8.12C15.389 8.153 15.322 8.22 15.026 8.567L14.7 8.95C14.67 8.98558 14.6511 9.02909 14.6454 9.07525C14.6397 9.12141 14.6476 9.16822 14.668 9.21L14.715 9.304C14.96 9.794 14.812 10.394 14.366 10.714C12.736 11.874 13.006 14.504 13.006 15.864V16.004C13.006 16.2692 12.9006 16.5236 12.7131 16.7111C12.5256 16.8986 12.2712 17.004 12.006 17.004C11.7408 17.004 11.4864 16.8986 11.2989 16.7111C11.1113 16.5236 11.006 16.2692 11.006 16.004V2.704C11.006 2.464 11.006 2.379 10.999 2.313C10.9657 1.96622 10.8128 1.64183 10.5665 1.39549C10.3202 1.14916 9.99577 0.996247 9.64899 0.963L9.63999 1.01ZM9.27699 0C9.47799 0 9.61499 0 9.73599 0.012C10.3133 0.0692582 10.8529 0.324707 11.2631 0.734906C11.6733 1.1451 11.9287 1.68472 11.986 2.262C11.998 2.382 11.998 2.52 11.998 2.721V13.021C11.998 12.021 12.986 10.491 13.778 9.921C13.8003 9.90508 13.8161 9.88172 13.8227 9.85514C13.8293 9.82856 13.8262 9.8005 13.814 9.776L13.767 9.682C13.6591 9.46386 13.6173 9.21897 13.6466 8.97738C13.6759 8.7358 13.7751 8.50802 13.932 8.322L14.258 7.939L14.306 7.883C14.526 7.624 14.716 7.399 14.958 7.266C15.2808 7.08732 15.6582 7.03392 16.018 7.116C16.286 7.176 16.533 7.338 16.817 7.526L16.878 7.566L22.458 11.236C22.636 11.353 22.788 11.453 22.909 11.544C23.035 11.638 23.155 11.744 23.252 11.88C23.524 12.263 23.602 12.75 23.461 13.2C23.411 13.36 23.329 13.497 23.239 13.626C23.1324 13.7733 23.0213 13.9174 22.906 14.058L22.354 14.748C22.2512 14.8763 22.1225 14.9815 21.9762 15.0567C21.83 15.132 21.6696 15.1755 21.5054 15.1846C21.3413 15.1936 21.177 15.168 21.0234 15.1093C20.8698 15.0506 20.7303 14.9602 20.614 14.844C20.5822 14.8129 20.5395 14.7954 20.495 14.7954C20.4505 14.7954 20.4078 14.8129 20.376 14.844L19.61 15.61C19.2832 15.9369 19.0448 16.3415 18.9171 16.7858C18.7895 17.23 18.7767 17.6994 18.88 18.15C19.567 21.16 17.28 24.02 14.2 24.02H11.76C7.44999 24.02 4.26999 20.04 5.28999 15.84C5.75499 13.91 6.18499 12.11 6.49999 10.64C6.69699 9.715 6.84399 8.94 6.92599 8.36L6.38799 8.629C5.92141 8.8615 5.41037 8.99116 4.88939 9.00922C4.3684 9.02728 3.84961 8.93332 3.36805 8.73368C2.8865 8.53404 2.4534 8.23338 2.098 7.85201C1.74261 7.47063 1.47321 7.01742 1.30799 6.523L0.0179912 2.663C-0.00705763 2.58779 -0.0138665 2.50771 -0.00187383 2.42935C0.0101189 2.351 0.0405695 2.27662 0.0869661 2.21234C0.133363 2.14807 0.194375 2.09575 0.264971 2.0597C0.335567 2.02365 0.413723 2.0049 0.492991 2.005H2.76399C2.86599 2.005 2.95499 2.005 3.04099 2.015C3.30717 2.0461 3.5604 2.14702 3.775 2.30754C3.98961 2.46805 4.15796 2.68245 4.26299 2.929L4.27299 2.948L4.54299 3.491C4.62779 3.6613 4.76277 3.8015 4.92974 3.89269C5.09671 3.98387 5.28763 4.02166 5.47674 4.00095C5.66585 3.98024 5.84407 3.90203 5.98734 3.77687C6.13062 3.65171 6.23206 3.48562 6.27799 3.301L6.58699 2.061C6.62599 1.905 6.65299 1.797 6.68499 1.7C6.84117 1.23846 7.12881 0.832617 7.51256 0.532369C7.89631 0.232122 8.35943 0.0505578 8.84499 0.01C8.94699 0 9.05799 0 9.21999 0H9.27099H9.27699Z" fill="#CC3102"/>
</g>
<defs>
<clipPath id="clip0_247_8215">
<rect width="24" height="24" fill="white"/>
</clipPath>
</defs>
</svg>
