<svg width="24" height="24" viewBox="0 0 24 24" fill="none" xmlns="http://www.w3.org/2000/svg">
<g clip-path="url(#clip0_236_4022)">
<path d="M8.21997 2.44994C8.67697 2.22094 9.05597 1.89094 9.35997 1.62794L9.56697 1.44994C9.92497 1.15094 10.183 1.00294 10.497 1.00294C10.818 1.00294 11.073 1.16094 11.268 1.35694C11.3776 1.46786 11.4724 1.59257 11.55 1.72794C11.5922 1.81274 11.6577 1.8838 11.7388 1.93282C11.8199 1.98184 11.9133 2.00681 12.008 2.00482C12.1027 2.00283 12.1949 1.97396 12.2739 1.92157C12.3529 1.86919 12.4153 1.79544 12.454 1.70894C12.464 1.6896 12.4813 1.6616 12.506 1.62494C12.5711 1.52944 12.6444 1.43977 12.725 1.35694C12.921 1.16094 13.175 1.00294 13.495 1.00294C13.81 1.00294 14.067 1.15094 14.425 1.44994C14.4903 1.5046 14.5596 1.56394 14.633 1.62794C14.936 1.89194 15.315 2.22194 15.773 2.45094C16.349 2.73894 17.043 2.87294 17.563 2.93694C17.7123 2.9556 17.8483 2.9696 17.971 2.97894L17.025 19.0789L16.922 19.0989C16.4943 19.1945 16.0876 19.3673 15.722 19.6089C14.816 20.2139 14.002 21.3789 14.002 23.5289C14.002 23.6615 14.0546 23.7887 14.1484 23.8825C14.2422 23.9763 14.3694 24.0289 14.502 24.0289C14.6346 24.0289 14.7618 23.9763 14.8555 23.8825C14.9493 23.7887 15.002 23.6615 15.002 23.5289C15.002 21.6789 15.686 20.8389 16.282 20.4489C16.6436 20.2104 17.06 20.0679 17.492 20.0349H17.506H17.505C17.6325 20.0346 17.7551 19.9856 17.8477 19.8978C17.9403 19.8101 17.9958 19.6903 18.003 19.5629L19.003 2.56294C19.0069 2.49496 18.9969 2.42689 18.9737 2.36291C18.9504 2.29893 18.9143 2.24038 18.8675 2.19085C18.8208 2.14132 18.7645 2.10185 18.7019 2.07487C18.6394 2.04789 18.5721 2.03396 18.504 2.03394H18.492C18.4209 2.03349 18.3499 2.03116 18.279 2.02694C18.0824 2.01717 17.8863 2.00016 17.691 1.97594C17.21 1.91594 16.651 1.79894 16.231 1.58594C15.898 1.42094 15.641 1.19894 15.35 0.944936C15.2633 0.868936 15.1726 0.791269 15.078 0.711936C14.686 0.385936 14.194 0.0339355 13.508 0.0339355C12.828 0.0339355 12.338 0.375936 12.028 0.679936L12.006 0.699936L11.985 0.679936C11.681 0.375936 11.185 0.0339355 10.505 0.0339355C9.81897 0.0339355 9.32497 0.385936 8.93497 0.711936C8.83964 0.791936 8.74897 0.869602 8.66297 0.944936C8.37097 1.19794 8.11497 1.41994 7.78197 1.58694C7.35797 1.79894 6.79997 1.91494 6.32197 1.97594C6.05578 2.0087 5.78811 2.02806 5.51997 2.03394H5.50997C5.44188 2.03409 5.37453 2.04814 5.31206 2.07525C5.24959 2.10235 5.19332 2.14193 5.14669 2.19155C5.10006 2.24118 5.06406 2.2998 5.04089 2.36384C5.01773 2.42787 5.00788 2.49596 5.01197 2.56394L6.01197 19.5639C6.01961 19.6911 6.07551 19.8106 6.16825 19.8979C6.26099 19.9853 6.38357 20.0339 6.51097 20.0339H6.50897H6.52297L6.59297 20.0399C7.0003 20.0848 7.39126 20.2253 7.73397 20.4499C8.32797 20.8459 9.01397 21.6799 9.01397 23.5299C9.01397 23.6625 9.06665 23.7897 9.16042 23.8835C9.25418 23.9773 9.38136 24.0299 9.51397 24.0299C9.64658 24.0299 9.77376 23.9773 9.86752 23.8835C9.96129 23.7897 10.014 23.6625 10.014 23.5299C10.014 21.3799 9.19697 20.2199 8.29397 19.6099C7.89879 19.349 7.456 19.1685 6.99097 19.0789L6.04497 2.97894C6.16764 2.9696 6.30364 2.9556 6.45297 2.93694C6.97197 2.87194 7.66297 2.73894 8.24297 2.45094L8.21997 2.44994ZM1.43997 6.99994L3.37997 6.65894C3.55373 6.62835 3.71114 6.5375 3.82454 6.40234C3.93794 6.26717 4.00005 6.09636 3.99997 5.91994V5.07994C4.00005 4.90351 3.93794 4.7327 3.82454 4.59754C3.71114 4.46237 3.55373 4.37152 3.37997 4.34094L1.43997 3.99994C0.854971 3.99994 0.854971 6.99994 1.43997 6.99994ZM3.87997 16.6999L1.93997 17.0409C1.35497 17.0409 1.35497 14.0409 1.93997 14.0409L3.87997 14.3819C4.05373 14.4125 4.21114 14.5034 4.32454 14.6385C4.43794 14.7737 4.50005 14.9445 4.49997 15.1209V15.9619C4.50005 16.1384 4.43794 16.3092 4.32454 16.4443C4.21114 16.5795 4.05373 16.6694 3.87997 16.6999ZM1.68997 11.9999L3.62997 11.6589C3.80373 11.6284 3.96114 11.5375 4.07454 11.4023C4.18794 11.2672 4.25005 11.0964 4.24997 10.9199V10.0789C4.25005 9.90251 4.18794 9.7317 4.07454 9.59653C3.96114 9.46137 3.80373 9.37052 3.62997 9.33994L1.68997 8.99893C1.10497 8.99893 1.10497 11.9989 1.68997 11.9989V11.9999ZM20.6 6.65994L22.54 7.00094C23.125 7.00094 23.125 4.00094 22.54 4.00094L20.6 4.34194C20.4262 4.37252 20.2688 4.46337 20.1554 4.59854C20.042 4.7337 19.9799 4.90451 19.98 5.08094V5.92094C19.9799 6.09736 20.042 6.26817 20.1554 6.40334C20.2688 6.5385 20.4262 6.62935 20.6 6.65994ZM22.1 16.9999L20.16 16.6589C19.9862 16.6284 19.8288 16.5375 19.7154 16.4023C19.602 16.2672 19.5399 16.0964 19.54 15.9199V15.0789C19.5399 14.9025 19.602 14.7317 19.7154 14.5965C19.8288 14.4614 19.9862 14.3705 20.16 14.3399L22.1 13.9989C22.685 13.9989 22.685 16.9999 22.1 16.9999ZM20.4 11.6999L22.34 12.0409C22.925 12.0409 22.925 9.04094 22.34 9.04094L20.4 9.38194C20.2262 9.41252 20.0688 9.50338 19.9554 9.63854C19.842 9.7737 19.7799 9.94451 19.78 10.1209V10.9619C19.7799 11.1384 19.842 11.3092 19.9554 11.4443C20.0688 11.5795 20.2262 11.6704 20.4 11.7009V11.6999Z" fill="#CC3102"/>
</g>
<defs>
<clipPath id="clip0_236_4022">
<rect width="24" height="24" fill="white"/>
</clipPath>
</defs>
</svg>
