<svg width="24" height="24" viewBox="0 0 24 24" fill="none" xmlns="http://www.w3.org/2000/svg">
<g clip-path="url(#clip0_247_8205)">
<path d="M19.1475 1.71C19.2084 1.7109 19.2689 1.69942 19.3252 1.67625L19.6305 1.98975L19.2172 2.6085L18.9435 2.32725C18.9872 2.22547 18.9944 2.11171 18.9638 2.00525C18.9332 1.89879 18.8667 1.80618 18.7757 1.74313C18.6846 1.68008 18.5745 1.65047 18.4641 1.65932C18.3537 1.66818 18.2497 1.71494 18.1699 1.7917C18.09 1.86845 18.0391 1.97046 18.0259 2.08044C18.0127 2.19041 18.0379 2.30158 18.0972 2.39509C18.1566 2.4886 18.2465 2.5587 18.3517 2.59349C18.4568 2.62829 18.5708 2.62564 18.6742 2.586L19.005 2.92575L18.915 3.06C18.8607 3.1438 18.8363 3.2435 18.8458 3.3429C18.8554 3.4423 18.8982 3.53555 18.9675 3.6075L18.9937 3.63375L16.1827 6.2025L15.6945 5.7165C15.3449 5.36705 14.9298 5.09014 14.4728 4.90171C14.0159 4.71327 13.5262 4.61703 13.032 4.6185C12.2691 4.61698 11.5247 4.85288 10.902 5.2935C10.8085 5.361 10.7185 5.4335 10.632 5.511L10.593 5.54625L10.5382 5.59125L10.4707 5.655L8.81998 7.3065L9.87898 8.3655L11.532 6.7125C11.562 6.6875 11.5927 6.661 11.6242 6.633C11.6692 6.592 11.716 6.5535 11.7645 6.5175C12.1357 6.25688 12.5784 6.11751 13.032 6.1185C13.6335 6.1185 14.2095 6.35625 14.637 6.78L15.0742 7.215L12.5625 9.51C12.3525 9.6975 12.345 10.0275 12.5475 10.23L13.7475 11.415C13.95 11.6175 14.2725 11.6025 14.4675 11.3925L16.7377 8.86875L17.1495 9.2775C17.5223 9.66524 17.7521 10.1683 17.8012 10.7039C17.8502 11.2396 17.7156 11.776 17.4195 12.225C17.292 12.4005 17.152 12.5655 16.9995 12.72C16.8795 12.845 16.767 12.9775 16.662 13.1175L15.6465 14.133L16.7077 15.1943L17.7225 14.1795L17.8027 14.1L17.8695 14.0085C17.9345 13.923 18.0042 13.8415 18.0787 13.764C18.2767 13.5615 18.4592 13.3462 18.6262 13.1182C19.1389 12.3798 19.3774 11.4854 19.3004 10.5897C19.2235 9.69403 18.8359 8.85341 18.2047 8.21325L17.7412 7.75275L20.2912 4.91775L20.3175 4.9425C20.4675 5.085 20.6925 5.1075 20.865 4.995L20.9475 4.93875L21.2422 5.24625C21.2101 5.31926 21.1967 5.39915 21.2033 5.47865C21.2099 5.55814 21.2363 5.63473 21.2801 5.70143C21.3238 5.76813 21.3836 5.82284 21.4538 5.86058C21.5241 5.89831 21.6027 5.91788 21.6825 5.9175C21.7527 5.91732 21.8221 5.90172 21.8857 5.8718C21.9492 5.84188 22.0055 5.79837 22.0504 5.74435C22.0953 5.69032 22.1278 5.62709 22.1456 5.55912C22.1634 5.49115 22.1661 5.42011 22.1534 5.351C22.1407 5.28189 22.1131 5.2164 22.0723 5.15916C22.0316 5.10192 21.9788 5.05432 21.9176 5.01973C21.8565 4.98513 21.7885 4.96438 21.7184 4.95894C21.6484 4.9535 21.578 4.96351 21.5122 4.98825L21.261 4.7265L21.8685 4.314L22.1722 4.63125C22.1401 4.70426 22.1267 4.78415 22.1333 4.86365C22.1399 4.94314 22.1663 5.01973 22.2101 5.08643C22.2538 5.15313 22.3136 5.20784 22.3838 5.24558C22.4541 5.28332 22.5327 5.30288 22.6125 5.3025C22.6827 5.30232 22.7521 5.28672 22.8157 5.2568C22.8792 5.22688 22.9355 5.18337 22.9804 5.12934C23.0253 5.07532 23.0578 5.01209 23.0756 4.94412C23.0934 4.87615 23.0961 4.80511 23.0834 4.736C23.0707 4.66689 23.0431 4.6014 23.0023 4.54416C22.9616 4.48692 22.9088 4.43932 22.8476 4.40473C22.7865 4.37013 22.7185 4.34938 22.6484 4.34394C22.5784 4.3385 22.508 4.34851 22.4422 4.37325L22.1797 4.10025C22.2854 4.01775 22.3723 3.91377 22.4347 3.7952C22.4972 3.67662 22.5338 3.54613 22.5421 3.41237C22.5504 3.2786 22.5302 3.1446 22.4828 3.01922C22.4355 2.89383 22.3621 2.77992 22.2675 2.685L21.2175 1.6425C21.1267 1.55218 21.0185 1.48125 20.8995 1.43402C20.7805 1.38679 20.6531 1.36424 20.5251 1.36775C20.3971 1.37125 20.2711 1.40074 20.1548 1.45442C20.0386 1.5081 19.9344 1.58484 19.8487 1.68L19.5907 1.4145C19.6303 1.31937 19.6383 1.21403 19.6134 1.11404C19.5885 1.01405 19.5321 0.924726 19.4525 0.859274C19.3729 0.793822 19.2744 0.755717 19.1715 0.750594C19.0686 0.74547 18.9667 0.7736 18.881 0.830824C18.7953 0.888048 18.7303 0.971328 18.6956 1.06835C18.6609 1.16537 18.6584 1.27099 18.6884 1.36958C18.7183 1.46816 18.7792 1.55449 18.862 1.6158C18.9448 1.67711 19.0444 1.71013 19.1475 1.71ZM20.6902 2.175L21.7387 3.216C21.8212 3.29925 21.8137 3.44475 21.7035 3.5205L20.661 4.227L19.6837 3.26025L20.3865 2.2095L20.3902 2.20425C20.406 2.1803 20.4268 2.16014 20.4512 2.14522C20.4757 2.13031 20.5032 2.12101 20.5317 2.11799C20.5601 2.11498 20.5889 2.11833 20.616 2.1278C20.643 2.13727 20.6676 2.15262 20.688 2.17275L20.6902 2.175ZM9.23623 13.68L9.24748 13.71C9.32248 13.9125 9.23248 14.1525 9.03748 14.2575C8.94247 14.3097 8.83226 14.3271 8.72578 14.3068C8.61931 14.2866 8.52321 14.2299 8.45399 14.1465C8.38478 14.063 8.34677 13.9581 8.34649 13.8498C8.34622 13.7414 8.38369 13.6363 8.45248 13.5525C8.37806 13.5253 8.2986 13.5145 8.21961 13.521C8.14062 13.5275 8.06398 13.551 7.99498 13.59L7.01998 14.1375C6.50998 14.4225 5.87248 14.2425 5.58748 13.74L5.54248 13.665C5.53498 13.665 5.53498 13.6575 5.53498 13.6575C5.47672 13.551 5.46295 13.4258 5.49667 13.3091C5.53039 13.1925 5.60887 13.094 5.71498 13.035C5.81143 12.9833 5.92298 12.9672 6.03012 12.9894C6.13726 13.0116 6.23318 13.0708 6.3011 13.1566C6.36902 13.2424 6.40462 13.3493 6.40167 13.4587C6.39873 13.5681 6.35742 13.673 6.28498 13.755C6.43498 13.815 6.61498 13.815 6.77248 13.725L7.74748 13.1775C8.25748 12.8925 8.89498 13.0725 9.17998 13.575L9.22498 13.65L9.23623 13.68ZM8.84998 16.665L7.34998 15.1725C7.30046 15.1224 7.24148 15.0826 7.17646 15.0554C7.11145 15.0283 7.04169 15.0143 6.97123 15.0143C6.90078 15.0143 6.83102 15.0283 6.766 15.0554C6.70099 15.0826 6.64201 15.1224 6.59248 15.1725C6.38248 15.3825 6.38248 15.72 6.59248 15.93L8.09248 17.4225C8.30248 17.6325 8.63998 17.6325 8.84998 17.4225C9.05998 17.2125 9.05248 16.8675 8.84998 16.665ZM10.3125 14.7338L10.2825 14.7225C10.1802 14.6894 10.0695 14.693 9.96957 14.7327C9.86963 14.7724 9.78666 14.8457 9.73498 14.94C9.68416 15.0357 9.66819 15.1461 9.6898 15.2523C9.71141 15.3585 9.76926 15.4539 9.85345 15.5221C9.93764 15.5904 10.0429 15.6272 10.1513 15.6264C10.2597 15.6255 10.3644 15.587 10.4475 15.5175C10.5 15.66 10.5 15.825 10.4175 15.975L9.88498 16.9575C9.61498 17.4675 9.80248 18.105 10.3125 18.3825L10.3875 18.4275C10.3875 18.435 10.395 18.435 10.395 18.435C10.62 18.555 10.8975 18.4725 11.0175 18.2475C11.068 18.1503 11.0828 18.0385 11.0592 17.9316C11.0357 17.8246 10.9753 17.7293 10.8887 17.6624C10.8021 17.5954 10.6947 17.5609 10.5852 17.5651C10.4758 17.5692 10.3713 17.6117 10.29 17.685C10.2225 17.535 10.23 17.355 10.3125 17.1975L10.845 16.215C11.115 15.705 10.9275 15.0675 10.4175 14.79L10.3425 14.745L10.3125 14.7338Z" fill="#CC3102"/>
<path d="M14.64 17.3363L16.557 19.254C16.565 19.2655 16.5743 19.2765 16.5848 19.287L17.5523 20.2545C17.5708 20.2732 17.5928 20.2879 17.6171 20.298C17.6413 20.3081 17.6674 20.3133 17.6936 20.3133C17.7199 20.3133 17.7459 20.3081 17.7702 20.298C17.7944 20.2879 17.8165 20.2732 17.835 20.2545L18.6548 19.4348C18.6924 19.3972 18.7136 19.3462 18.714 19.293L19.6995 20.2755C19.7702 20.3438 19.865 20.3816 19.9633 20.3808C20.0616 20.3799 20.1557 20.3405 20.2252 20.271C20.2947 20.2014 20.3342 20.1074 20.335 20.0091C20.3359 19.9107 20.2981 19.816 20.2298 19.7453L5.3775 4.93129C5.13408 4.72057 4.84745 4.56571 4.53778 4.4776C4.22811 4.3895 3.9029 4.37027 3.585 4.42129C3.0525 4.50679 2.487 4.60354 2.37 4.64254C2.178 4.70629 2.50875 5.31754 2.9325 5.61604C2.947 5.63854 2.964 5.65979 2.9835 5.67979L6.70275 9.39903C6.37084 9.32748 6.02627 9.34053 5.70072 9.43699C5.37518 9.53345 5.07911 9.71022 4.83975 9.95104L3.19725 11.5935L2.412 12.3848C2.02543 12.7737 1.68883 13.2093 1.41 13.6815C0.866492 14.6218 0.652491 15.7165 0.801946 16.7922C0.951402 17.8679 1.45576 18.8629 2.235 19.6193L4.4475 21.8168C4.90296 22.2719 5.44371 22.6328 6.03879 22.8787C6.63387 23.1247 7.27161 23.2508 7.9155 23.25C8.859 23.2512 9.78211 22.9756 10.5705 22.4573C10.9416 22.2103 11.2873 21.9272 11.6025 21.612L12.3345 20.8808L12.345 20.874L12.465 20.757L14.0775 19.1445C14.3103 18.9111 14.4831 18.6248 14.5811 18.31C14.6791 17.9952 14.6993 17.6606 14.64 17.3363ZM14.775 16.3763L12.9083 14.5088L12.885 14.5215L9.45675 11.094L9.4695 11.07L7.6305 9.23104V9.26704L3.8955 5.53204C4.17675 5.30104 4.608 5.23954 4.866 5.49679L17.529 18.1125C17.4863 18.109 17.4435 18.1179 17.4058 18.1381C17.368 18.1583 17.3369 18.189 17.3162 18.2265C17.2956 18.264 17.2862 18.3067 17.2892 18.3494C17.2922 18.3921 17.3075 18.4331 17.3333 18.4673C17.4915 18.681 17.6708 18.96 17.5365 19.1048C17.5257 19.1167 17.513 19.1269 17.499 19.1348L14.739 16.3748L14.775 16.3763ZM12.351 15.0488C12.1723 15.3481 12.1001 15.6991 12.1461 16.0447C12.1921 16.3903 12.3537 16.7101 12.6045 16.9523C12.724 17.0818 12.854 17.1993 12.9945 17.3048L13.017 17.3273C13.0671 17.3768 13.1069 17.4358 13.1341 17.5008C13.1612 17.5658 13.1752 17.6356 13.1752 17.706C13.1752 17.7765 13.1612 17.8463 13.1341 17.9113C13.1069 17.9763 13.0671 18.0353 13.017 18.0848L11.4045 19.6958L11.3895 19.707L11.3745 19.7183L10.542 20.5508C10.2975 20.7933 10.0325 21.0108 9.747 21.2033C9.20313 21.5609 8.56639 21.7512 7.9155 21.7508C7.01089 21.7498 6.14335 21.3913 5.502 20.7533L5.08425 20.3385L7.2675 18.63C7.41 18.51 7.425 18.2925 7.29 18.1575L5.8575 16.74C5.82587 16.7083 5.78782 16.6837 5.74591 16.6678C5.704 16.652 5.65918 16.6452 5.61446 16.6481C5.56974 16.6509 5.52614 16.6633 5.48657 16.6843C5.447 16.7053 5.41237 16.7346 5.385 16.77L3.708 18.9713L3.2895 18.555C2.74908 18.0308 2.39831 17.3418 2.29241 16.5964C2.1865 15.851 2.33147 15.0915 2.7045 14.4375C2.921 14.0735 3.1785 13.741 3.477 13.44L4.2495 12.66L5.8995 11.01C5.94903 10.9599 6.00801 10.9201 6.07302 10.893C6.13804 10.8658 6.2078 10.8518 6.27825 10.8518C6.34871 10.8518 6.41847 10.8658 6.48348 10.893C6.5485 10.9201 6.60748 10.9599 6.657 11.01C6.77923 11.1378 6.90426 11.2628 7.032 11.385C7.17827 11.5313 7.35191 11.6473 7.543 11.7264C7.7341 11.8056 7.93892 11.8463 8.14575 11.8463C8.42475 11.847 8.69625 11.7713 8.93175 11.6288L12.351 15.0488ZM18.2235 19.44C18.2235 19.516 18.1933 19.5889 18.1396 19.6426C18.0859 19.6964 18.013 19.7265 17.937 19.7265C17.861 19.7265 17.7881 19.6964 17.7344 19.6426C17.6807 19.5889 17.6505 19.516 17.6505 19.44C17.6505 19.3641 17.6807 19.2912 17.7344 19.2374C17.7881 19.1837 17.861 19.1535 17.937 19.1535C18.013 19.1535 18.0859 19.1837 18.1396 19.2374C18.1933 19.2912 18.2235 19.3641 18.2235 19.44Z" fill="#CC3102"/>
</g>
<defs>
<clipPath id="clip0_247_8205">
<rect width="24" height="24" fill="white"/>
</clipPath>
</defs>
</svg>
